<svg width="1439" height="752" viewBox="0 0 1439 752" fill="none" xmlns="http://www.w3.org/2000/svg">
<rect opacity="0.4" x="1440" y="752" width="1440" height="752" transform="rotate(-180 1440 752)" fill="url(#paint0_linear)"/>
<g opacity="0.2">
<circle cx="1102" cy="111" r="5" fill="#EA3958"/>
<circle cx="1102" cy="139.688" r="5" fill="#EA3958"/>
<circle cx="1102" cy="168.375" r="5" fill="#EA3958"/>
<circle cx="1102" cy="197.062" r="5" fill="#EA3958"/>
<circle cx="1102" cy="225.75" r="5" fill="#EA3958"/>
<circle cx="1102" cy="254.438" r="5" fill="#EA3958"/>
<circle cx="1130.69" cy="111" r="5" fill="#EA3958"/>
<circle cx="1130.69" cy="139.688" r="5" fill="#EA3958"/>
<circle cx="1130.69" cy="168.375" r="5" fill="#EA3958"/>
<circle cx="1130.69" cy="197.062" r="5" fill="#EA3958"/>
<circle cx="1130.69" cy="225.75" r="5" fill="#EA3958"/>
<circle cx="1130.69" cy="254.438" r="5" fill="#EA3958"/>
<circle cx="1159.38" cy="111" r="5" fill="#EA3958"/>
<circle cx="1159.38" cy="139.688" r="5" fill="#EA3958"/>
<circle cx="1159.38" cy="168.375" r="5" fill="#EA3958"/>
<circle cx="1159.38" cy="197.062" r="5" fill="#EA3958"/>
<circle cx="1159.38" cy="225.75" r="5" fill="#EA3958"/>
<circle cx="1159.38" cy="254.438" r="5" fill="#EA3958"/>
<circle cx="1188.06" cy="111" r="5" fill="#EA3958"/>
<circle cx="1216.75" cy="111" r="5" fill="#EA3958"/>
<circle cx="1245.44" cy="111" r="5" fill="#EA3958"/>
<circle cx="1188.06" cy="139.688" r="5" fill="#EA3958"/>
<circle cx="1216.75" cy="139.688" r="5" fill="#EA3958"/>
<circle cx="1245.44" cy="139.688" r="5" fill="#EA3958"/>
<circle cx="1188.06" cy="168.375" r="5" fill="#EA3958"/>
<circle cx="1216.75" cy="168.375" r="5" fill="#EA3958"/>
<circle cx="1245.44" cy="168.375" r="5" fill="#EA3958"/>
<circle cx="1188.06" cy="197.062" r="5" fill="#EA3958"/>
<circle cx="1188.06" cy="225.75" r="5" fill="#EA3958"/>
<circle cx="1188.06" cy="254.438" r="5" fill="#EA3958"/>
<circle cx="1216.75" cy="197.062" r="5" fill="#EA3958"/>
<circle cx="1216.75" cy="225.75" r="5" fill="#EA3958"/>
<circle cx="1216.75" cy="254.438" r="5" fill="#EA3958"/>
<circle cx="1245.44" cy="197.062" r="5" fill="#EA3958"/>
<circle cx="1245.44" cy="225.75" r="5" fill="#EA3958"/>
<circle cx="1245.44" cy="254.438" r="5" fill="#EA3958"/>
</g>
<defs>
<linearGradient id="paint0_linear" x1="2160" y1="1224.32" x2="2160" y2="847.08" gradientUnits="userSpaceOnUse">
<stop stop-color="#F8D8E0"/>
<stop offset="1" stop-color="#FFF1F5" stop-opacity="0"/>
</linearGradient>
</defs>
</svg>
