<svg width="1440" height="1037" viewBox="0 0 1440 1037" fill="none" xmlns="http://www.w3.org/2000/svg">
<path d="M-227.265 352.382C-166.886 286.867 -23.9332 395.892 165.488 375.842C329.548 358.457 329.735 264.462 464.129 283.878C562.313 298.045 674.208 362.802 741.998 461.661C816.755 570.662 803.585 671.831 799.495 696.283C781.292 805.973 699.848 855.948 671.049 872.909C552.391 942.738 408.43 912.414 339.369 897.899C79.9431 843.295 -212.11 640.949 -242.971 452.428C-247.035 427.744 -254.518 381.969 -227.265 352.382Z" fill="url(#paint0_linear)"/>
<path d="M726.294 498.716C777.853 429.127 879.672 519.154 1027.2 479.754C1154.98 445.612 1162.33 354.926 1264.43 359.423C1339.01 362.691 1420.29 413.306 1464.96 501.484C1514.22 598.709 1496.31 697.69 1491.29 721.709C1468.85 829.442 1402.24 886.272 1378.75 905.682C1281.94 985.603 1173.31 971.598 1121.19 964.91C925.431 939.713 715.85 775.459 706.518 596.882C705.278 573.503 703.021 530.141 726.294 498.716Z" fill="url(#paint1_linear)"/>
<defs>
<linearGradient id="paint0_linear" x1="387.656" y1="126.717" x2="115.223" y2="793.206" gradientUnits="userSpaceOnUse">
<stop stop-color="#FFF7F9"/>
<stop offset="1" stop-color="#F8D8E0"/>
</linearGradient>
<linearGradient id="paint1_linear" x1="1217.54" y1="215.925" x2="955.66" y2="887.347" gradientUnits="userSpaceOnUse">
<stop stop-color="#FFF7F9"/>
<stop offset="1" stop-color="#F8D8E0"/>
</linearGradient>
</defs>
</svg>
