<?xml version="1.0" encoding="utf-8"?>
<!-- Generator: Adobe Illustrator 25.2.0, SVG Export Plug-In . SVG Version: 6.00 Build 0)  -->
<svg version="1.1" id="Layer_1" xmlns="http://www.w3.org/2000/svg" xmlns:xlink="http://www.w3.org/1999/xlink" x="0px" y="0px"
	 viewBox="0 0 2120 3309" style="enable-background:new 0 0 2120 3309;" xml:space="preserve">
<style type="text/css">
	.st0{opacity:0.4;fill:url(#SVGID_1_);enable-background:new    ;}
	.st1{opacity:0.2;}
	.st2{fill:#EA3958;}
	.st3{fill:url(#SVGID_2_);}
	.st4{fill:url(#SVGID_3_);}
	.st5{fill:url(#SVGID_4_);}
	.st6{fill:#FFF1F5;}
	.st7{fill:url(#SVGID_5_);}
</style>
<linearGradient id="SVGID_1_" gradientUnits="userSpaceOnUse" x1="3716" y1="-7032.4072" x2="3716" y2="-5560.0967" gradientTransform="matrix(-1 0 0 1 4776 8124)">
	<stop  offset="0" style="stop-color:#F8D8E0"/>
	<stop  offset="1" style="stop-color:#FFF1F5;stop-opacity:0"/>
</linearGradient>
<rect class="st0" width="2120" height="2935"/>
<g class="st1">
	<circle class="st2" cx="1464.8" cy="234" r="5"/>
	<circle class="st2" cx="1464.8" cy="262.7" r="5"/>
	<circle class="st2" cx="1464.8" cy="291.4" r="5"/>
	<circle class="st2" cx="1464.8" cy="320.1" r="5"/>
	<circle class="st2" cx="1464.8" cy="348.8" r="5"/>
	<circle class="st2" cx="1464.8" cy="377.4" r="5"/>
	<circle class="st2" cx="1493.5" cy="234" r="5"/>
	<circle class="st2" cx="1493.5" cy="262.7" r="5"/>
	<circle class="st2" cx="1493.5" cy="291.4" r="5"/>
	<circle class="st2" cx="1493.5" cy="320.1" r="5"/>
	<circle class="st2" cx="1493.5" cy="348.8" r="5"/>
	<circle class="st2" cx="1493.5" cy="377.4" r="5"/>
	<circle class="st2" cx="1522.2" cy="234" r="5"/>
	<circle class="st2" cx="1522.2" cy="262.7" r="5"/>
	<circle class="st2" cx="1522.2" cy="291.4" r="5"/>
	<circle class="st2" cx="1522.2" cy="320.1" r="5"/>
	<circle class="st2" cx="1522.2" cy="348.8" r="5"/>
	<circle class="st2" cx="1522.2" cy="377.4" r="5"/>
	<circle class="st2" cx="1550.8" cy="234" r="5"/>
	<circle class="st2" cx="1579.5" cy="234" r="5"/>
	<circle class="st2" cx="1608.2" cy="234" r="5"/>
	<circle class="st2" cx="1550.8" cy="262.7" r="5"/>
	<circle class="st2" cx="1579.5" cy="262.7" r="5"/>
	<circle class="st2" cx="1608.2" cy="262.7" r="5"/>
	<circle class="st2" cx="1550.8" cy="291.4" r="5"/>
	<circle class="st2" cx="1579.5" cy="291.4" r="5"/>
	<circle class="st2" cx="1608.2" cy="291.4" r="5"/>
	<circle class="st2" cx="1550.8" cy="320.1" r="5"/>
	<circle class="st2" cx="1550.8" cy="348.8" r="5"/>
	<circle class="st2" cx="1550.8" cy="377.4" r="5"/>
	<circle class="st2" cx="1579.5" cy="320.1" r="5"/>
	<circle class="st2" cx="1579.5" cy="348.8" r="5"/>
	<circle class="st2" cx="1579.5" cy="377.4" r="5"/>
	<circle class="st2" cx="1608.2" cy="320.1" r="5"/>
	<circle class="st2" cx="1608.2" cy="348.8" r="5"/>
	<circle class="st2" cx="1608.2" cy="377.4" r="5"/>
</g>
<g class="st1">
	<circle class="st2" cx="485.8" cy="1790.8" r="5"/>
	<circle class="st2" cx="485.8" cy="1819.5" r="5"/>
	<circle class="st2" cx="485.8" cy="1848.2" r="5"/>
	<circle class="st2" cx="485.8" cy="1876.9" r="5"/>
	<circle class="st2" cx="485.8" cy="1905.6" r="5"/>
	<circle class="st2" cx="485.8" cy="1934.2" r="5"/>
	<circle class="st2" cx="514.5" cy="1790.8" r="5"/>
	<circle class="st2" cx="514.5" cy="1819.5" r="5"/>
	<circle class="st2" cx="514.5" cy="1848.2" r="5"/>
	<circle class="st2" cx="514.5" cy="1876.9" r="5"/>
	<circle class="st2" cx="514.5" cy="1905.6" r="5"/>
	<circle class="st2" cx="514.5" cy="1934.2" r="5"/>
	<circle class="st2" cx="543.2" cy="1790.8" r="5"/>
	<circle class="st2" cx="543.2" cy="1819.5" r="5"/>
	<circle class="st2" cx="543.2" cy="1848.2" r="5"/>
	<circle class="st2" cx="543.2" cy="1876.9" r="5"/>
	<circle class="st2" cx="543.2" cy="1905.6" r="5"/>
	<circle class="st2" cx="543.2" cy="1934.2" r="5"/>
	<circle class="st2" cx="571.8" cy="1790.8" r="5"/>
	<circle class="st2" cx="600.5" cy="1790.8" r="5"/>
	<circle class="st2" cx="629.2" cy="1790.8" r="5"/>
	<circle class="st2" cx="571.8" cy="1819.5" r="5"/>
	<circle class="st2" cx="600.5" cy="1819.5" r="5"/>
	<circle class="st2" cx="629.2" cy="1819.5" r="5"/>
	<circle class="st2" cx="571.8" cy="1848.2" r="5"/>
	<circle class="st2" cx="600.5" cy="1848.2" r="5"/>
	<circle class="st2" cx="629.2" cy="1848.2" r="5"/>
	<circle class="st2" cx="571.8" cy="1876.9" r="5"/>
	<circle class="st2" cx="571.8" cy="1905.6" r="5"/>
	<circle class="st2" cx="571.8" cy="1934.2" r="5"/>
	<circle class="st2" cx="600.5" cy="1876.9" r="5"/>
	<circle class="st2" cx="600.5" cy="1905.6" r="5"/>
	<circle class="st2" cx="600.5" cy="1934.2" r="5"/>
	<circle class="st2" cx="629.2" cy="1876.9" r="5"/>
	<circle class="st2" cx="629.2" cy="1905.6" r="5"/>
	<circle class="st2" cx="629.2" cy="1934.2" r="5"/>
</g>
<g class="st1">
	<circle class="st2" cx="1464.8" cy="1038.3" r="5"/>
	<circle class="st2" cx="1464.8" cy="1067" r="5"/>
	<circle class="st2" cx="1464.8" cy="1095.7" r="5"/>
	<circle class="st2" cx="1464.8" cy="1124.4" r="5"/>
	<circle class="st2" cx="1464.8" cy="1153.1" r="5"/>
	<circle class="st2" cx="1464.8" cy="1181.7" r="5"/>
	<circle class="st2" cx="1493.5" cy="1038.3" r="5"/>
	<circle class="st2" cx="1493.5" cy="1067" r="5"/>
	<circle class="st2" cx="1493.5" cy="1095.7" r="5"/>
	<circle class="st2" cx="1493.5" cy="1124.4" r="5"/>
	<circle class="st2" cx="1493.5" cy="1153.1" r="5"/>
	<circle class="st2" cx="1493.5" cy="1181.7" r="5"/>
	<circle class="st2" cx="1522.2" cy="1038.3" r="5"/>
	<circle class="st2" cx="1522.2" cy="1067" r="5"/>
	<circle class="st2" cx="1522.2" cy="1095.7" r="5"/>
	<circle class="st2" cx="1522.2" cy="1124.4" r="5"/>
	<circle class="st2" cx="1522.2" cy="1153.1" r="5"/>
	<circle class="st2" cx="1522.2" cy="1181.7" r="5"/>
	<circle class="st2" cx="1550.8" cy="1038.3" r="5"/>
	<circle class="st2" cx="1579.5" cy="1038.3" r="5"/>
	<circle class="st2" cx="1608.2" cy="1038.3" r="5"/>
	<circle class="st2" cx="1550.8" cy="1067" r="5"/>
	<circle class="st2" cx="1579.5" cy="1067" r="5"/>
	<circle class="st2" cx="1608.2" cy="1067" r="5"/>
	<circle class="st2" cx="1550.8" cy="1095.7" r="5"/>
	<circle class="st2" cx="1579.5" cy="1095.7" r="5"/>
	<circle class="st2" cx="1608.2" cy="1095.7" r="5"/>
	<circle class="st2" cx="1550.8" cy="1124.4" r="5"/>
	<circle class="st2" cx="1550.8" cy="1153.1" r="5"/>
	<circle class="st2" cx="1550.8" cy="1181.7" r="5"/>
	<circle class="st2" cx="1579.5" cy="1124.4" r="5"/>
	<circle class="st2" cx="1579.5" cy="1153.1" r="5"/>
	<circle class="st2" cx="1579.5" cy="1181.7" r="5"/>
	<circle class="st2" cx="1608.2" cy="1124.4" r="5"/>
	<circle class="st2" cx="1608.2" cy="1153.1" r="5"/>
	<circle class="st2" cx="1608.2" cy="1181.7" r="5"/>
</g>
<g>
	
		<linearGradient id="SVGID_2_" gradientUnits="userSpaceOnUse" x1="1373.9305" y1="5039.0908" x2="1625.9806" y2="4279.6226" gradientTransform="matrix(1 0 0 -1 0 6402)">
		<stop  offset="0" style="stop-color:#FFF7F9"/>
		<stop  offset="1" style="stop-color:#F8D8E0"/>
	</linearGradient>
	<path class="st3" d="M2003.1,1671.1c-66-75.8-196.5,22.3-385.4-20.7c-163.7-37.2-173.1-136.1-303.9-131.2
		c-95.5,3.6-199.7,58.7-256.9,154.8c-63.1,106-40.2,213.8-33.7,240c28.8,117.4,114.1,179.4,144.2,200.5
		c124,87.1,263.1,71.8,329.9,64.6c250.8-27.5,519.2-206.5,531.2-401.1C2030,1752.6,2032.9,1705.4,2003.1,1671.1z"/>
	
		<linearGradient id="SVGID_3_" gradientUnits="userSpaceOnUse" x1="706.9976" y1="4136.5605" x2="469.9887" y2="3422.4106" gradientTransform="matrix(1 0 0 -1 0 6402)">
		<stop  offset="0" style="stop-color:#FFF1F5"/>
		<stop  offset="1" style="stop-color:#F8D8E0"/>
	</linearGradient>
	<path class="st4" d="M115.4,2555.3c62.1-71.3,184.7,20.9,362.4-19.4c153.9-35,162.8-127.9,285.7-123.3
		c89.8,3.4,187.7,55.2,241.5,145.6c59.3,99.6,37.8,201.1,31.7,225.7c-27,110.4-107.3,168.6-135.6,188.6
		c-116.6,81.9-247.4,67.6-310.2,60.7C355.1,3007.4,102.7,2839,91.4,2656C90.1,2631.9,87.3,2587.5,115.4,2555.3z"/>
</g>
<g>
	
		<linearGradient id="SVGID_4_" gradientUnits="userSpaceOnUse" x1="1712.7026" y1="4028.4734" x2="1641.2926" y2="4210.2729" gradientTransform="matrix(1 0 0 -1 0 6402)">
		<stop  offset="0" style="stop-color:#FFF1F5"/>
		<stop  offset="1" style="stop-color:#F8D8E0"/>
	</linearGradient>
	<path class="st5" d="M1663.2,2252.7c2.9,0,5.2-2.3,5.2-5.2s-2.3-5.2-5.2-5.2s-5.2,2.3-5.2,5.2S1660.3,2252.7,1663.2,2252.7z"/>
</g>
<g>
	<path class="st6" d="M1693.5,2252.7c2.9,0,5.2-2.3,5.2-5.2s-2.3-5.2-5.2-5.2s-5.2,2.3-5.2,5.2S1690.6,2252.7,1693.5,2252.7z"/>
</g>
<g>
	<path class="st6" d="M1723.8,2252.7c2.9,0,5.2-2.3,5.2-5.2s-2.3-5.2-5.2-5.2s-5.2,2.3-5.2,5.2
		C1718.6,2250.4,1720.9,2252.7,1723.8,2252.7z"/>
</g>
<g>
	<path class="st6" d="M1754.1,2252.7c2.9,0,5.2-2.3,5.2-5.2s-2.3-5.2-5.2-5.2c-2.9,0-5.2,2.3-5.2,5.2
		C1748.8,2250.4,1751.2,2252.7,1754.1,2252.7z"/>
</g>
<g>
	<path class="st6" d="M1784.3,2252.7c2.9,0,5.2-2.3,5.2-5.2s-2.3-5.2-5.2-5.2s-5.2,2.3-5.2,5.2
		C1779.1,2250.4,1781.5,2252.7,1784.3,2252.7z"/>
</g>
<g>
	<path class="st6" d="M1663.2,2278.9c2.9,0,5.2-2.3,5.2-5.2s-2.3-5.2-5.2-5.2s-5.2,2.3-5.2,5.2
		C1658,2276.5,1660.3,2278.9,1663.2,2278.9z"/>
</g>
<g>
	<path class="st6" d="M1693.5,2278.9c2.9,0,5.2-2.3,5.2-5.2s-2.3-5.2-5.2-5.2s-5.2,2.3-5.2,5.2
		C1688.3,2276.5,1690.6,2278.9,1693.5,2278.9z"/>
</g>
<g>
	<path class="st6" d="M1723.8,2278.9c2.9,0,5.2-2.3,5.2-5.2s-2.3-5.2-5.2-5.2s-5.2,2.3-5.2,5.2
		C1718.6,2276.5,1720.9,2278.9,1723.8,2278.9z"/>
</g>
<g>
	<path class="st6" d="M1754.1,2278.9c2.9,0,5.2-2.3,5.2-5.2s-2.3-5.2-5.2-5.2c-2.9,0-5.2,2.3-5.2,5.2
		C1748.8,2276.5,1751.2,2278.9,1754.1,2278.9z"/>
</g>
<g>
	<path class="st6" d="M1784.3,2278.9c2.9,0,5.2-2.3,5.2-5.2s-2.3-5.2-5.2-5.2s-5.2,2.3-5.2,5.2
		C1779.1,2276.5,1781.5,2278.9,1784.3,2278.9z"/>
</g>
<g>
	<path class="st6" d="M1663.2,2305c2.9,0,5.2-2.3,5.2-5.2s-2.3-5.2-5.2-5.2s-5.2,2.3-5.2,5.2S1660.3,2305,1663.2,2305z"/>
</g>
<g>
	<path class="st6" d="M1693.5,2305c2.9,0,5.2-2.3,5.2-5.2s-2.3-5.2-5.2-5.2s-5.2,2.3-5.2,5.2S1690.6,2305,1693.5,2305z"/>
</g>
<g>
	
		<linearGradient id="SVGID_5_" gradientUnits="userSpaceOnUse" x1="1747.4022" y1="4042.1035" x2="1676.0022" y2="4223.9038" gradientTransform="matrix(1 0 0 -1 0 6402)">
		<stop  offset="0" style="stop-color:#FFF1F5"/>
		<stop  offset="1" style="stop-color:#F8D8E0"/>
	</linearGradient>
	<path class="st7" d="M1723.8,2305c2.9,0,5.2-2.3,5.2-5.2s-2.3-5.2-5.2-5.2s-5.2,2.3-5.2,5.2C1718.6,2302.7,1720.9,2305,1723.8,2305
		z"/>
</g>
<g>
	<path class="st6" d="M1754.1,2305c2.9,0,5.2-2.3,5.2-5.2s-2.3-5.2-5.2-5.2c-2.9,0-5.2,2.3-5.2,5.2
		C1748.8,2302.7,1751.2,2305,1754.1,2305z"/>
</g>
<g>
	<path class="st6" d="M1784.3,2305c2.9,0,5.2-2.3,5.2-5.2s-2.3-5.2-5.2-5.2s-5.2,2.3-5.2,5.2C1779.1,2302.7,1781.5,2305,1784.3,2305
		z"/>
</g>
<g>
	<path class="st6" d="M1663.2,2331.2c2.9,0,5.2-2.3,5.2-5.2s-2.3-5.2-5.2-5.2s-5.2,2.3-5.2,5.2
		C1658,2328.8,1660.3,2331.2,1663.2,2331.2z"/>
</g>
<g>
	<path class="st6" d="M1693.5,2331.2c2.9,0,5.2-2.3,5.2-5.2s-2.3-5.2-5.2-5.2s-5.2,2.3-5.2,5.2
		C1688.3,2328.8,1690.6,2331.2,1693.5,2331.2z"/>
</g>
<g>
	<path class="st6" d="M1723.8,2331.2c2.9,0,5.2-2.3,5.2-5.2s-2.3-5.2-5.2-5.2s-5.2,2.3-5.2,5.2
		C1718.6,2328.8,1720.9,2331.2,1723.8,2331.2z"/>
</g>
<g>
	<path class="st6" d="M1754.1,2331.2c2.9,0,5.2-2.3,5.2-5.2s-2.3-5.2-5.2-5.2c-2.9,0-5.2,2.3-5.2,5.2
		C1748.8,2328.8,1751.2,2331.2,1754.1,2331.2z"/>
</g>
<g>
	<path class="st6" d="M1784.3,2331.2c2.9,0,5.2-2.3,5.2-5.2s-2.3-5.2-5.2-5.2s-5.2,2.3-5.2,5.2
		C1779.1,2328.8,1781.5,2331.2,1784.3,2331.2z"/>
</g>
<g>
	<path class="st6" d="M1663.2,2357.3c2.9,0,5.2-2.3,5.2-5.2s-2.3-5.2-5.2-5.2s-5.2,2.3-5.2,5.2
		C1658,2354.9,1660.3,2357.3,1663.2,2357.3z"/>
</g>
<g>
	<path class="st6" d="M1693.5,2357.3c2.9,0,5.2-2.3,5.2-5.2s-2.3-5.2-5.2-5.2s-5.2,2.3-5.2,5.2
		C1688.3,2354.9,1690.6,2357.3,1693.5,2357.3z"/>
</g>
<g>
	<path class="st6" d="M1723.8,2357.3c2.9,0,5.2-2.3,5.2-5.2s-2.3-5.2-5.2-5.2s-5.2,2.3-5.2,5.2
		C1718.6,2354.9,1720.9,2357.3,1723.8,2357.3z"/>
</g>
<g>
	<path class="st6" d="M1754.1,2357.3c2.9,0,5.2-2.3,5.2-5.2s-2.3-5.2-5.2-5.2c-2.9,0-5.2,2.3-5.2,5.2
		C1748.8,2354.9,1751.2,2357.3,1754.1,2357.3z"/>
</g>
<g>
	<path class="st6" d="M1784.3,2357.3c2.9,0,5.2-2.3,5.2-5.2s-2.3-5.2-5.2-5.2s-5.2,2.3-5.2,5.2
		C1779.1,2354.9,1781.5,2357.3,1784.3,2357.3z"/>
</g>
</svg>
