<svg width="24" height="24" viewBox="0 0 24 24" fill="none" xmlns="http://www.w3.org/2000/svg">
<rect width="24" height="24" fill="white"/>
<path d="M1.74116 6.96248C1.58081 6.85561 1.50064 6.80218 1.44248 6.77348C0.827703 6.47014 0.0969206 6.8613 0.00837613 7.5411C0 7.60541 0 7.70175 0 7.89445V19.88C0 19.9914 0 20.0472 0.00443804 20.0941C0.0496128 20.572 0.427993 20.9504 0.905892 20.9956C0.952841 21 1.00856 21 1.12 21H22.88C22.9914 21 23.0472 21 23.0941 20.9956C23.572 20.9504 23.9504 20.572 23.9956 20.0941C24 20.0472 24 19.9914 24 19.88V7.89445C24 7.70175 24 7.60541 23.9916 7.5411C23.9031 6.8613 23.1723 6.47014 22.5575 6.77348C22.4994 6.80218 22.4192 6.85561 22.2588 6.96248L12.6212 13.386C12.5572 13.4286 12.5252 13.4499 12.4946 13.4674C12.1879 13.6419 11.8121 13.6419 11.5054 13.4674C11.4748 13.4499 11.4428 13.4286 11.3788 13.386L1.74116 6.96248ZM4.89911 3C4.58372 3 4.42602 3 4.35016 3.01171C3.52073 3.1398 3.20851 4.17099 3.82759 4.73765C3.88421 4.78947 4.01542 4.87695 4.27784 5.0519L11.3787 9.78582C11.4427 9.82846 11.4747 9.84978 11.5053 9.86724C11.812 10.0418 12.188 10.0418 12.4947 9.86724C12.5253 9.84978 12.5573 9.82846 12.6213 9.78582L19.7222 5.0519C19.9846 4.87695 20.1158 4.78947 20.1724 4.73765C20.7915 4.17099 20.4793 3.1398 19.6498 3.01171C19.574 3 19.4163 3 19.1009 3H4.89911Z" fill="#EA3958"/>
</svg>
