<svg width="24" height="24" viewBox="0 0 24 24" fill="none" xmlns="http://www.w3.org/2000/svg">
<rect width="24" height="24" fill="white"/>
<path d="M7.66134 18.8584L7.47535 18.6725L2.77441 23.3726L2.9604 23.5585C3.24508 23.8432 3.62362 23.9999 4.02626 23.9999C4.42889 23.9999 4.80739 23.8432 5.09202 23.5586L7.66134 20.9897C8.24903 20.4022 8.24903 19.4461 7.66134 18.8584Z" fill="#EA3958"/>
<path d="M23.5586 2.96427L23.3726 2.77832L18.6716 7.4784L18.8577 7.66436C19.1423 7.94903 19.5209 8.10578 19.9235 8.10578C20.3261 8.10578 20.7047 7.94898 20.9893 7.66436L23.5586 5.09555C23.8433 4.81088 24.0001 4.43245 24.0001 4.02993C24.0001 3.62737 23.8433 3.24895 23.5586 2.96427Z" fill="#EA3958"/>
<path d="M17.0577 0C14.7775 0 12.6337 0.887816 11.0214 2.49985L2.49594 11.0238C-0.700078 14.2193 -0.826524 19.3387 2.11529 22.6872L6.80305 18.0003L6.05362 17.251C5.25641 16.4539 5.25641 15.1569 6.05362 14.3598L14.3582 6.05679C15.1553 5.25977 16.4526 5.25973 17.2498 6.05684L17.9993 6.80618L22.6872 2.11909C21.1294 0.748878 19.1512 0 17.0577 0Z" fill="#EA3958"/>
</svg>
