<svg width="105" height="80" viewBox="0 0 105 80" fill="none" xmlns="http://www.w3.org/2000/svg">
<rect width="105" height="80" fill="white"/>
<path d="M66.0039 3C60.8477 3 56.043 4.46797 52 7.00356C47.957 4.46797 43.1523 3 37.9961 3C23.6406 3 12 14.3625 12 28.3749C12 35.0857 14.6758 41.1863 19.0312 45.7237L48.7383 76.6274C49.5586 77.4662 50.7109 78 52 78C53.2891 78 54.4414 77.4662 55.2617 76.6274L84.9688 45.7237C89.3242 41.1863 92 35.0857 92 28.3749C92 14.3625 80.3594 3 66.0039 3ZM54.3047 54.4553C53.582 55.0844 52.7227 55.4085 51.7656 55.4085C50.7695 55.4085 49.9102 55.1035 49.168 54.4743C48.4258 53.8452 48.0547 52.9682 48.0547 51.8434C48.0547 50.8521 48.4063 50.0132 49.1289 49.3269C49.8516 48.6406 50.7109 48.2974 51.7656 48.2974C52.7813 48.2974 53.6406 48.6406 54.3438 49.3269C55.0469 50.0132 55.3984 50.8521 55.3984 51.8434C55.418 52.9492 55.0469 53.8261 54.3047 54.4553ZM63.4063 32.4548C62.8398 33.4652 62.1758 34.3421 61.4141 35.0857C60.6523 35.8292 59.2656 37.0684 57.2734 38.8033C56.7266 39.2989 56.2773 39.7184 55.9453 40.0996C55.6133 40.4809 55.3594 40.805 55.2031 41.1291C55.0469 41.4532 54.9102 41.7392 54.832 42.0633C54.7344 42.3683 54.6172 42.9212 54.4219 43.6838C54.1094 45.3233 53.1523 46.1622 51.5312 46.1622C50.6914 46.1622 49.9688 45.8953 49.4023 45.3615C48.8164 44.8277 48.543 44.0269 48.543 42.9593C48.543 41.6248 48.7578 40.4809 49.168 39.5086C49.5977 38.5363 50.1445 37.6784 50.8477 36.9349C51.5508 36.1914 52.4883 35.3144 53.6797 34.304C54.7148 33.408 55.4766 32.7407 55.9258 32.3022C56.3945 31.8447 56.7852 31.349 57.0977 30.7961C57.4102 30.2433 57.5664 29.6332 57.5664 28.985C57.5664 27.7267 57.0781 26.6401 56.1211 25.7822C55.1641 24.9052 53.9141 24.4667 52.3906 24.4667C50.6133 24.4667 49.2852 24.9052 48.4453 25.7822C47.6055 26.6591 46.8828 27.9555 46.2969 29.6713C45.75 31.4634 44.6953 32.3594 43.1523 32.3594C42.2344 32.3594 41.4727 32.0544 40.8477 31.4253C40.2227 30.7961 39.9102 30.1289 39.9102 29.3854C39.9102 27.8793 40.3984 26.3541 41.3945 24.8099C42.3906 23.2656 43.8359 21.9883 45.7305 20.9779C47.625 19.9675 49.8516 19.4527 52.3711 19.4527C54.7148 19.4527 56.8047 19.8721 58.6016 20.73C60.3984 21.5689 61.7852 22.7318 62.7812 24.1807C63.7578 25.6296 64.2461 27.2311 64.2461 28.9278C64.2461 30.2623 63.9727 31.4443 63.4063 32.4548Z" fill="#FFB800"/>
</svg>
