<svg width="105" height="80" viewBox="0 0 105 80" fill="none" xmlns="http://www.w3.org/2000/svg">
<rect width="105" height="80" fill="white"/>
<path d="M75.6672 49.6548C74.6313 50.6455 74.1554 52.0783 74.3913 53.4835L77.9469 72.9032C78.2468 74.5492 77.5429 76.2148 76.1471 77.1661C74.7793 78.1529 72.9595 78.2713 71.4677 77.4819L53.754 68.364C53.1381 68.0404 52.4542 67.8667 51.7543 67.847H50.6704C50.2945 67.9022 49.9265 68.0206 49.5906 68.2022L31.8729 77.3634C30.997 77.7976 30.0052 77.9516 29.0333 77.7976C26.6656 77.3556 25.0858 75.1294 25.4737 72.7809L29.0333 53.3611C29.2692 51.9441 28.7933 50.5034 27.7574 49.4969L13.3153 35.682C12.1075 34.5255 11.6875 32.7888 12.2395 31.2218C12.7754 29.6587 14.1432 28.518 15.795 28.2615L35.6724 25.4156C37.1842 25.2617 38.512 24.3538 39.192 23.0118L47.9508 5.28932C48.1588 4.89461 48.4267 4.53148 48.7507 4.2236L49.1107 3.94731C49.2986 3.74206 49.5146 3.57233 49.7546 3.43418L50.1905 3.2763L50.8704 3H52.5542C54.058 3.15394 55.3818 4.04204 56.0737 5.36826L64.9486 23.0118C65.5885 24.3025 66.8323 25.1985 68.2682 25.4156L88.1456 28.2615C89.8253 28.4983 91.2291 29.643 91.7851 31.2218C92.309 32.8046 91.8571 34.5413 90.6252 35.682L75.6672 49.6548Z" fill="#FFE353"/>
</svg>
