<svg width="22" height="20" viewBox="0 0 22 20" fill="none" xmlns="http://www.w3.org/2000/svg">
<rect width="22" height="20" fill="white"/>
<path fill-rule="evenodd" clip-rule="evenodd" d="M21.5402 4.46917C21.2872 3.49721 20.5418 2.73184 19.5951 2.47208C17.8796 2 11 2 11 2C11 2 4.12038 2 2.40475 2.47208C1.45813 2.73184 0.712625 3.49721 0.459625 4.46917C0 6.23074 0 9.90625 0 9.90625C0 9.90625 0 13.5816 0.459625 15.3433C0.712625 16.3153 1.45813 17.0807 2.40475 17.3405C4.12038 17.8125 11 17.8125 11 17.8125C11 17.8125 17.8796 17.8125 19.5951 17.3405C20.5418 17.0807 21.2872 16.3153 21.5402 15.3433C22 13.5816 22 9.90625 22 9.90625C22 9.90625 22 6.23074 21.5402 4.46917" fill="#EA3958"/>
<path fill-rule="evenodd" clip-rule="evenodd" d="M8.93774 13.6876V6.81262L14.4377 10.2503L8.93774 13.6876Z" fill="white"/>
</svg>
