<svg width="22" height="20" viewBox="0 0 22 20" fill="none" xmlns="http://www.w3.org/2000/svg">
<rect width="22" height="20" fill="white"/>
<path fill-rule="evenodd" clip-rule="evenodd" d="M11.0009 1C8.55664 1 8.24989 1.01069 7.28987 1.05438C6.33172 1.09825 5.67771 1.24994 5.10544 1.47251C4.51349 1.70239 4.01136 2.0099 3.5111 2.51035C3.01046 3.01061 2.70295 3.51274 2.47232 4.10451C2.24919 4.67696 2.09731 5.33116 2.05419 6.28893C2.01125 7.24895 2 7.55589 2 10.0002C2 12.4445 2.01088 12.7503 2.05438 13.7103C2.09844 14.6685 2.25013 15.3225 2.47251 15.8948C2.70258 16.4867 3.01008 16.9889 3.51053 17.4891C4.01061 17.9897 4.51274 18.298 5.10432 18.5279C5.67696 18.7505 6.33116 18.9021 7.28912 18.946C8.24914 18.9897 8.55571 19.0004 10.9998 19.0004C13.4443 19.0004 13.7501 18.9897 14.7102 18.946C15.6683 18.9021 16.3231 18.7505 16.8957 18.5279C17.4875 18.298 17.9889 17.9897 18.4889 17.4891C18.9896 16.9889 19.2971 16.4867 19.5277 15.895C19.749 15.3225 19.9008 14.6683 19.9458 13.7105C19.989 12.7505 20.0002 12.4445 20.0002 10.0002C20.0002 7.55589 19.989 7.24914 19.9458 6.28912C19.9008 5.33097 19.749 4.67696 19.5277 4.10469C19.2971 3.51274 18.9896 3.01061 18.4889 2.51035C17.9883 2.00971 17.4877 1.7022 16.8951 1.47251C16.3214 1.24994 15.667 1.09825 14.7088 1.05438C13.7488 1.01069 13.4432 1 10.9981 1H11.0009ZM10.1936 2.62169C10.4333 2.62132 10.7006 2.62169 11.001 2.62169C13.4041 2.62169 13.6889 2.63032 14.6378 2.67344C15.5154 2.71357 15.9916 2.8602 16.3089 2.98339C16.7289 3.14652 17.0283 3.34152 17.3432 3.65653C17.6582 3.97153 17.8532 4.27154 18.0167 4.69155C18.1399 5.00843 18.2867 5.48469 18.3266 6.36221C18.3697 7.31098 18.3791 7.59599 18.3791 9.99792C18.3791 12.3998 18.3697 12.6849 18.3266 13.6336C18.2865 14.5111 18.1399 14.9874 18.0167 15.3043C17.8535 15.7243 17.6582 16.0234 17.3432 16.3382C17.0281 16.6532 16.7291 16.8482 16.3089 17.0113C15.992 17.1351 15.5154 17.2813 14.6378 17.3215C13.6891 17.3646 13.4041 17.374 11.001 17.374C8.59777 17.374 8.31296 17.3646 7.36419 17.3215C6.48667 17.281 6.01041 17.1343 5.69296 17.0111C5.27295 16.848 4.97295 16.653 4.65794 16.338C4.34293 16.023 4.14793 15.7237 3.98442 15.3035C3.86123 14.9867 3.71442 14.5104 3.67448 13.6329C3.63135 12.6841 3.62273 12.3991 3.62273 9.99567C3.62273 7.59224 3.63135 7.30873 3.67448 6.35996C3.71461 5.48244 3.86123 5.00618 3.98442 4.68893C4.14755 4.26892 4.34293 3.96891 4.65794 3.6539C4.97295 3.3389 5.27295 3.14389 5.69296 2.98039C6.01022 2.85664 6.48667 2.71038 7.36419 2.67007C8.19445 2.63257 8.51621 2.62132 10.1936 2.61944V2.62169ZM15.8053 4.11608C15.2091 4.11608 14.7253 4.59928 14.7253 5.19573C14.7253 5.79199 15.2091 6.27575 15.8053 6.27575C16.4016 6.27575 16.8854 5.79199 16.8854 5.19573C16.8854 4.59946 16.4016 4.1157 15.8053 4.1157V4.11608ZM11.0008 5.37795C8.4483 5.37795 6.37882 7.44743 6.37882 9.99993C6.37882 12.5524 8.4483 14.621 11.0008 14.621C13.5533 14.621 15.622 12.5524 15.622 9.99993C15.622 7.44743 13.5531 5.37795 11.0006 5.37795H11.0008ZM11.0007 7.00001C12.6575 7.00001 14.0008 8.3431 14.0008 10.0001C14.0008 11.6569 12.6575 13.0001 11.0007 13.0001C9.34375 13.0001 8.00066 11.6569 8.00066 10.0001C8.00066 8.3431 9.34375 7.00001 11.0007 7.00001V7.00001Z" fill="#EA3958"/>
</svg>
