<svg width="24" height="24" viewBox="0 0 24 24" fill="none" xmlns="http://www.w3.org/2000/svg">
<rect width="24" height="24" fill="white"/>
<path d="M11.8064 23.4551C11.8507 23.5187 11.9232 23.5565 11.9998 23.5565C12.0773 23.5565 12.1503 23.5182 12.1955 23.4551L12.4545 23.0859C13.2277 21.9767 20 12.1333 20 8.00025C19.9995 3.5894 16.4106 0 11.9998 0C7.5894 0 4 3.5894 4 8.00025C4 12.262 11.2389 22.6466 11.5475 23.0859L11.8064 23.4551ZM8.97438 7.99826C8.97438 6.33102 10.3315 4.97388 11.9998 4.97388C13.667 4.97388 15.0241 6.33053 15.0241 7.99826C15.0241 9.66599 13.6675 11.0236 11.9998 11.0236C10.332 11.0241 8.97438 9.66699 8.97438 7.99826Z" fill="#EA3958"/>
</svg>
