<svg width="105" height="80" viewBox="0 0 105 80" fill="none" xmlns="http://www.w3.org/2000/svg">
<rect width="105" height="80" fill="white"/>
<path d="M65.9217 3.00015C60.7955 3.01724 56.0188 4.5101 51.9988 7.07386L51.9969 7.07106C47.9772 4.5087 43.2009 3.01677 38.0755 3.00015C23.7247 2.95354 11.9998 14.5722 12 28.8413C12 35.6799 14.6719 41.8982 19.0341 46.5204L19.0342 46.5205L46.5173 75.6399C47.9384 77.1457 49.9228 77.9998 51.9995 78C54.0766 78 56.0611 77.1458 57.4825 75.6399L84.9656 46.5205C89.3281 41.8984 92 35.6801 92 28.8413C92.0002 14.5709 80.2736 2.95214 65.9217 3.00015ZM63.0736 40.4509C64.6456 42.014 64.6456 44.5482 63.0736 46.1112C62.2877 46.8928 61.2575 47.2835 60.2273 47.2835C59.1972 47.2835 58.167 46.8928 57.3809 46.1113L52 40.761L46.6191 46.1113C45.8331 46.8926 44.8028 47.2835 43.7727 47.2835C42.7423 47.2835 41.7123 46.8929 40.9264 46.1112C39.3544 44.5482 39.3544 42.014 40.9264 40.4509L46.3073 35.1006L40.9264 29.7503C39.3544 28.1872 39.3544 25.6531 40.9264 24.09C42.4983 22.527 45.047 22.527 46.6191 24.09L52 29.4405L57.3809 24.0902C58.953 22.5271 61.5016 22.5271 63.0736 24.0902C64.6456 25.6533 64.6456 28.1874 63.0736 29.7504L57.6927 35.1007L63.0736 40.4509Z" fill="#D03838"/>
</svg>
