<svg width="60" height="150" viewBox="0 0 60 150" fill="none" xmlns="http://www.w3.org/2000/svg">
<path d="M50.1102 39.8451C50.2137 51.195 59.8928 54.972 60 55.0202C59.9182 55.2865 58.4534 60.4027 54.9006 65.6873C51.8293 70.2561 48.6418 74.8082 43.6204 74.9025C38.6864 74.995 37.0999 71.9245 31.4589 71.9245C25.8197 71.9245 24.0569 74.8082 19.3864 74.995C14.5395 75.1817 10.8486 70.0545 7.75181 65.5024C1.4239 56.1909 -3.41194 39.1904 3.08137 27.7148C6.3071 22.0159 12.0717 18.4072 18.3287 18.3147C23.0883 18.2223 27.5807 21.5737 30.4902 21.5737C33.398 21.5737 38.8572 17.5433 44.5963 18.1352C46.9989 18.237 53.743 19.123 58.0736 25.5747C57.7246 25.7949 50.0265 30.3562 50.1102 39.8452V39.8451ZM40.8373 11.9749C43.4105 8.80458 45.1425 4.39124 44.67 0C40.9609 0.151729 36.4757 2.51569 33.8152 5.68424C31.4309 8.49014 29.3428 12.9812 29.9062 17.2855C34.0404 17.611 38.2639 15.1472 40.8373 11.9749" fill="white"/>
<path d="M50.1102 114.845C50.2137 126.195 59.8928 129.972 60 130.02C59.9182 130.287 58.4534 135.403 54.9006 140.687C51.8293 145.256 48.6418 149.808 43.6204 149.903C38.6864 149.995 37.0999 146.925 31.4589 146.925C25.8197 146.925 24.0569 149.808 19.3864 149.995C14.5395 150.182 10.8486 145.054 7.75181 140.502C1.4239 131.191 -3.41194 114.19 3.08137 102.715C6.3071 97.0159 12.0717 93.4072 18.3287 93.3147C23.0883 93.2223 27.5807 96.5737 30.4902 96.5737C33.398 96.5737 38.8572 92.5433 44.5963 93.1352C46.9989 93.237 53.743 94.123 58.0736 100.575C57.7246 100.795 50.0265 105.356 50.1102 114.845V114.845ZM40.8373 86.9749C43.4105 83.8046 45.1425 79.3912 44.67 75C40.9609 75.1517 36.4757 77.5157 33.8152 80.6842C31.4309 83.4901 29.3428 87.9812 29.9062 92.2855C34.0404 92.611 38.2639 90.1472 40.8373 86.9749" fill="#EA3958"/>
</svg>
