<svg width="68" height="136" viewBox="0 0 68 136" fill="none" xmlns="http://www.w3.org/2000/svg">
<rect x="12.7807" y="19.6626" width="42.2747" height="28.5108" fill="white"/>
<path fill-rule="evenodd" clip-rule="evenodd" d="M34 0C52.768 0 68 15.266 68 34L67.9869 34.9512C67.4827 53.28 52.4499 68 34 68C15.266 68 0 52.768 0 34C0 15.266 15.266 0 34 0ZM20.4 40.732C21.42 41.718 23.018 41.718 24.004 40.698L34 30.668L43.996 40.698C44.982 41.718 46.614 41.718 47.6 40.732C48.62 39.712 48.62 38.114 47.6 37.128L35.802 25.262C35.326 24.786 34.68 24.514 34 24.514C33.32 24.514 32.674 24.786 32.198 25.262L20.4 37.128C19.89 37.604 19.652 38.25 19.652 38.896C19.652 39.576 19.89 40.222 20.4 40.732Z" fill="#EA3958"/>
<rect x="12.7807" y="87.6626" width="42.2747" height="28.5108" fill="#EA3958"/>
<path fill-rule="evenodd" clip-rule="evenodd" d="M34 68C52.768 68 68 83.266 68 102L67.9869 102.951C67.4827 121.28 52.4499 136 34 136C15.266 136 0 120.768 0 102C0 83.266 15.266 68 34 68ZM20.4 108.732C21.42 109.718 23.018 109.718 24.004 108.698L34 98.6679L43.996 108.698C44.982 109.718 46.614 109.718 47.6 108.732C48.62 107.712 48.62 106.114 47.6 105.128L35.802 93.2619C35.326 92.7859 34.68 92.5139 34 92.5139C33.32 92.5139 32.674 92.7859 32.198 93.2619L20.4 105.128C19.89 105.604 19.652 106.25 19.652 106.896C19.652 107.576 19.89 108.222 20.4 108.732Z" fill="white"/>
</svg>
