<svg width="105" height="80" viewBox="0 0 105 80" fill="none" xmlns="http://www.w3.org/2000/svg">
<rect width="105" height="80" fill="white"/>
<path d="M66.0109 3C60.8508 3 56.042 4.46791 51.9988 6.99913L51.9969 6.99638C47.9545 4.46684 43.1473 3 37.9891 3C23.6358 3 12 14.3571 12 28.367C12 35.0804 14.6717 41.1846 19.0341 45.722L19.0342 45.7221L48.7447 76.6239C49.5589 77.4709 50.7161 78 51.9998 78C53.2836 78 54.4406 77.4709 55.2548 76.6242L84.9656 45.7221C89.3281 41.1848 92 35.0804 92 28.367C92 14.3571 80.3642 3 66.0109 3ZM71.74 26.7564L48.7466 49.1996C47.9606 49.9668 46.9305 50.3503 45.9003 50.3503C44.8702 50.3503 43.84 49.9668 43.0539 49.1996L34.9225 41.2629C33.3505 39.7285 33.3505 37.2407 34.9225 35.7063C36.4945 34.172 39.0431 34.172 40.6152 35.7063L41.6217 36.6888L45.9002 40.865L57.9986 29.0561L66.0472 21.2001C67.6192 19.6657 70.1678 19.6657 71.7398 21.2001C73.3119 22.7344 73.3119 25.222 71.74 26.7564Z" fill="#62D3A4"/>
</svg>
