<svg width="32" height="80" viewBox="0 0 32 80" fill="none" xmlns="http://www.w3.org/2000/svg">
<path d="M26.7254 21.2507C26.7806 27.304 31.9428 29.3184 32 29.3441C31.9564 29.4862 31.1752 32.2148 29.2803 35.0332C27.6423 37.4699 25.9423 39.8977 23.2642 39.948C20.6328 39.9974 19.7866 38.3598 16.7781 38.3598C13.7705 38.3598 12.8304 39.8977 10.3394 39.9974C7.75438 40.0969 5.78592 37.3624 4.1343 34.9346C0.759412 29.9685 -1.8197 20.9016 1.6434 14.7812C3.36379 11.7418 6.43826 9.81717 9.77533 9.76782C12.3137 9.71854 14.7097 11.506 16.2615 11.506C17.8122 11.506 20.7238 9.35642 23.7847 9.67211C25.0661 9.72639 28.6629 10.1989 30.9726 13.6399C30.7865 13.7573 26.6808 16.19 26.7254 21.2507V21.2507ZM21.7799 6.3866C23.1523 4.69578 24.076 2.342 23.824 0C21.8458 0.0809224 19.4537 1.3417 18.0348 3.03159C16.7631 4.52807 15.6495 6.92328 15.95 9.21892C18.1549 9.39256 20.4074 8.0785 21.7799 6.3866" fill="white"/>
<path d="M26.7254 61.2507C26.7806 67.304 31.9428 69.3184 32 69.3441C31.9564 69.4862 31.1752 72.2148 29.2803 75.0332C27.6423 77.4699 25.9423 79.8977 23.2642 79.948C20.6328 79.9974 19.7866 78.3598 16.7781 78.3598C13.7705 78.3598 12.8304 79.8977 10.3394 79.9974C7.75438 80.0969 5.78592 77.3624 4.1343 74.9346C0.759412 69.9685 -1.8197 60.9016 1.6434 54.7812C3.36379 51.7418 6.43826 49.8172 9.77533 49.7678C12.3137 49.7185 14.7097 51.506 16.2615 51.506C17.8122 51.506 20.7238 49.3564 23.7847 49.6721C25.0661 49.7264 28.6629 50.1989 30.9726 53.6399C30.7865 53.7573 26.6808 56.19 26.7254 61.2507V61.2507ZM21.7799 46.3866C23.1523 44.6958 24.076 42.342 23.824 40C21.8458 40.0809 19.4537 41.3417 18.0348 43.0316C16.7631 44.5281 15.6495 46.9233 15.95 49.2189C18.1549 49.3926 20.4074 48.0785 21.7799 46.3866" fill="#EA3958"/>
</svg>
