<svg width="22" height="20" viewBox="0 0 22 20" fill="none" xmlns="http://www.w3.org/2000/svg">
<rect width="22" height="20" fill="white"/>
<path fill-rule="evenodd" clip-rule="evenodd" d="M10.401 6.25625L10.443 6.9483L9.74349 6.86356C7.19739 6.53872 4.97304 5.4371 3.08445 3.58693L2.16114 2.66891L1.92331 3.34684C1.41969 4.85804 1.74145 6.45398 2.79067 7.52735C3.35025 8.12054 3.22434 8.20528 2.25906 7.85219C1.92331 7.7392 1.62953 7.65446 1.60155 7.69683C1.50363 7.7957 1.83938 9.08092 2.10518 9.58937C2.46891 10.2955 3.21035 10.9876 4.02175 11.3972L4.70724 11.722L3.89584 11.7361C3.11243 11.7361 3.08445 11.7502 3.16839 12.0468C3.44818 12.9649 4.55336 13.9394 5.78444 14.3631L6.65179 14.6597L5.89636 15.1116C4.77719 15.7613 3.46217 16.1285 2.14715 16.1567C1.51761 16.1709 1 16.2273 1 16.2697C1 16.411 2.70673 17.2019 3.69999 17.5126C6.67977 18.4306 10.2191 18.0351 12.8772 16.4674C14.7658 15.3517 16.6543 13.1343 17.5357 10.9876C18.0113 9.84359 18.487 7.75333 18.487 6.75057C18.487 6.10089 18.529 6.01615 19.3124 5.23937C19.774 4.78742 20.2077 4.2931 20.2916 4.15187C20.4315 3.88352 20.4175 3.88352 19.7041 4.12362C18.515 4.54732 18.3471 4.49083 18.9347 3.85528C19.3683 3.40333 19.8859 2.58417 19.8859 2.34408C19.8859 2.30171 19.6761 2.37232 19.4383 2.49943C19.1865 2.64067 18.6269 2.85252 18.2072 2.97963L17.4518 3.21973L16.7663 2.75365C16.3885 2.49943 15.8569 2.21697 15.5772 2.13223C14.8637 1.9345 13.7725 1.96275 13.129 2.18872C11.3803 2.82427 10.2751 4.46258 10.401 6.25625Z" fill="#EA3958"/>
</svg>
