<svg xmlns="http://www.w3.org/2000/svg" viewBox="0 0 338 72.008"><defs><style>.cls-1{fill:#fe0000;}.cls-2{fill:#fefefe;}</style></defs><g id="Layer_2" data-name="Layer 2"><g id="Layer_1-2" data-name="Layer 1"><path d="M71.36148,0c.00748,1.24367.035,2.48772.01172,3.73081-.00831.44357.13419.58068.56394.57185,1.04391-.02145,2.08952.01949,3.13254-.01787.51557-.01847.6433.16523.62714.65168-.03389,1.02072.00726,2.04379-.01843,3.065-.01037.41172.1216.53031.52974.51974,1.06587-.0276,2.13328.00672,3.1993-.01782.38078-.00876.48619.10757.47742.48348-.02484,1.0657.00992,2.13284-.01791,3.19839-.011.42116.08878.57519.54127.56,1.04318-.03509,2.089.01025,3.13239-.02156.42057-.01282.52281.126.522.524q-.01593,7.96362.00323,15.92725c.00127.42823-.13195.515-.52787.50479-1.04365-.027-2.08933.01558-3.13244-.02047-.45725-.0158-.54114.14725-.53809.56267.0178,2.421-.00694,4.84243.02107,7.26327.006.52171-.13036.68273-.65814.65924-.97577-.04344-1.95629.01909-2.932-.02531-.52394-.02384-.63617.17062-.62092.64532.03065.95422-.03438,1.91281.02451,2.86437.03845.62152-.18989.74782-.75273.72164-.93125-.04331-1.86919.03556-2.79816-.02761-.67267-.04574-.816.1959-.78158.81727.05392.97444-.00773,1.95477.02418,2.93115.01462.44753-.13827.55776-.56534.5443-.97672-.0308-1.95826.03784-2.93165-.02683-.62672-.04163-.7287.1868-.70456.73973.04356.99773-.00466,1.99916.02064,2.99815.00983.38808-.12247.489-.49386.48133-1.06614-.02191-2.13345.00994-3.19937-.01642-.44061-.0109-.58212.14481-.57333.574.02139,1.04363-.0136,2.08857.01638,3.13177.01288.44853-.14176.57594-.57365.56417-.977-.02661-1.95639.02029-2.9324-.02038-.5646-.02353-.7918.11605-.7588.73088.0535.99677-.00307,1.999.0228,2.99792.01074.41476-.12726.525-.533.5137-1.04356-.029-2.089.00905-3.13256-.01911-.40187-.01085-.53363.08753-.5205.50875.03252,1.04305-.01643,2.08881.02266,3.1314.01817.48457-.14308.59017-.59728.57438-.99871-.03472-2.00048.01586-2.999-.022-.51708-.01962-.71.12787-.69.664.03645.97606-.02344,1.95609.02362,2.93124.02689.5573-.177.68084-.6888.6594-.90947-.0381-1.82486.035-2.73163-.0274-.70319-.04842-.86208.21036-.8365.86847.04468,1.14978-.00773,2.30333-.01946,3.4553h-8.5367c.11695-1.3535.02784-2.7094.0433-4.06409.00343-.30141-.2491-.25409-.443-.25447-1.04474-.002-2.0901-.022-3.13395.00847-.45125.0132-.62164-.09372-.60369-.58079.03843-1.043-.0067-2.089.02112-3.13266.01064-.39959-.08356-.53882-.50786-.52672-1.08832.03105-2.17839-.00359-3.26716.01822-.38394.0077-.50067-.12109-.49269-.49816.02165-1.02177-.01506-2.045.01826-3.06619.01587-.48632-.116-.66775-.629-.64882-1.02113.03767-2.04494-.00367-3.067.01836-.40789.00879-.548-.13285-.54047-.53835.01969-1.0663-.00455-2.13338.01191-3.1998.00578-.37453-.12619-.50414-.50256-.49709-1.04438.01958-2.09-.01443-3.13381.01683-.45131.01351-.62564-.09148-.60762-.57969.03767-1.02083-.018-2.04523.0237-3.06575.02122-.5196-.16689-.641-.64691-.62662-1.0216.03058-2.04519-.00774-3.06706.018-.40847.01029-.54379-.11329-.53227-.52738.02717-.977-.02187-1.9567.02138-2.93257.02508-.56594-.10894-.79319-.72644-.75743-.95264.05516-1.91168-.00961-2.86629.02451-.48921.01749-.668-.11874-.6496-.63177.03748-1.0431-.00734-2.089.02014-3.1327.011-.41733-.12667-.53109-.53188-.5213-1.06635.02574-2.1343-.01133-3.20043.01856-.41971.01177-.52535-.11971-.51419-.52577.02867-1.04366-.01065-2.08921.01909-3.13281.01267-.4447-.13988-.57657-.56964-.56577-.97744.02457-1.95864-.03637-2.933.02376-.61218.03779-.807-.17025-.7283-.7405a3.44245,3.44245,0,0,0,.00371-.46622q.0003-3.33334-.002-6.66669c-.00052-.26984.09679-.61944-.38031-.60282-1.1286.0393-2.26037-.08554-3.38691.06485V12.66807c1.07953.14773,2.16547.01,3.24582.07342.46421.02726.54907-.173.53993-.58183-.02328-1.04159.00917-2.08446-.01624-3.126-.00974-.39943.09314-.54286.51527-.53127,1.06378.02921,2.12934-.00795,3.19327.01844.41475.01029.52906-.12737.518-.5302-.02676-.97485.02263-1.95233-.02049-2.926-.02558-.57787.09364-.82606.74582-.78508.99412.06246,1.99508.01815,2.99311.01471.21068-.00072.49707.06433.49-.27593A36.21859,36.21859,0,0,0,12.13812,0h17.0734c-.01145,1.30741-.01467,2.615-.0397,3.92211-.00694.36247.18725.37919.462.37711,1.08894-.00828,2.1783.01155,3.26684-.0113.37987-.008.49783.1109.48867.48853-.02318.95483-.01336,1.91064-.00611,2.866.00741.97689-.14054.86019.90089.86807.91116.00691,1.82316.02325,2.73331-.00788.44886-.01535.62315.09112.60424.58011-.03948,1.02052.01,2.04432-.02187,3.06538-.01486.47568.15514.59833.6101.5948,2.42232-.0188,4.84507-.02491,7.26718.00437.50111.00605.5726-.17.56011-.60524-.03-1.04341.014-2.08905-.02114-3.13214-.01438-.42749.12295-.51771.52115-.50709,1.02161.02727,2.046-.02453,3.06612.023.52778.02459.62667-.16518.6112-.63828-.03267-.99877.01493-2.00022-.02068-2.99879-.01712-.4803.15061-.61424.60805-.60108.95488.02745,1.91109.00879,2.86676.00814.85067-.00058.8507-.00114.851-.88188q.00054-1.53308-.00035-3.06614C54.51906.22529,54.59257.07658,54.42147,0ZM71.3536,8.53423l.00836.00764c.00659-1.24373-.00075-2.48777.02769-3.731.00932-.40732-.16865-.47087-.51715-.47038q-7.902.01129-15.804-.00233c-.4006-.00086-.54251.10789-.53135.52238.02689.99927-.02122,2.001.02055,2.99925.02256.53913-.11011.74709-.68758.71714-.93109-.04829-1.86911.02957-2.79923-.0272-.67165-.041-.83679.2158-.80548.83714.04581.9088-.02164,1.82329.02385,2.73211.02888.57693-.18871.71986-.72661.697-.90971-.03866-1.8237.0203-2.73312-.02168-.587-.0271-.83456.114-.79528.76321.05894.97421-.00229,1.95508.02363,2.93216.01087.40977-.123.53406-.52987.53148q-3.66738-.0232-7.33495.0002c-.44309.003-.57993-.15349-.57037-.58255.02276-1.02171-.00821-2.0446.01409-3.06633.00957-.43835-.15341-.58361-.5837-.574-.99978.02232-2.001-.01431-3.00041.0158-.503.01515-.71458-.10916-.68784-.66458.047-.97551-.02157-1.9566.02616-2.932.02825-.57745-.18006-.71088-.71808-.68828-.97633.041-1.95628-.00967-2.93336.02105-.4485.0141-.56661-.1439-.55568-.57164.02666-1.04376-.003-2.08885.01469-3.133.0061-.36084-.08756-.50815-.48109-.50733q-7.93519.0165-15.87042.00057c-.41437-.00082-.53561.14933-.52772.54454.02.99959-.02447,2.00118.01859,2.99932.02366.5484-.179.68421-.68862.66765-.99922-.03247-2.001.01376-3.00019-.01953-.48473-.01615-.66817.10986-.64878.62649.03915,1.043-.00615,2.08888.02024,3.13265.01058.41867-.13738.53231-.53721.5229-.99972-.02352-2.00177.02395-3.00009-.02021-.548-.02424-.67019.175-.65676.68255.03291,1.24356.01108,2.48857.01106,3.733,0,3.93329.01,7.86664-.01236,11.7998-.003.53379.15665.68211.67431.66111.95425-.03873,1.91263.02036,2.86645-.0233.5368-.02458.66371.1546.6578.67077-.027,2.35516.006,4.711-.02456,7.06611-.00749.57767.09888.82115.74467.77925.95181-.06177,1.91171.01168,2.866-.0267.54046-.02174.75289.12663.72764.70021-.04295.97588.0066,1.95551-.01967,2.93258-.01188.4415.14649.57683.5766.56582.9774-.025,1.95747.02572,2.93334-.02036.57743-.02726.71472.18641.692.72254-.0394.93166.03409,1.8691-.026,2.79854-.0434.67052.19994.83.82536.79305.886-.05235,1.77894.01732,2.66608-.02474.53285-.02525.74651.09293.713.68038-.05431.95245.02423,1.91243-.029,2.865-.03261.58383.176.70024.71055.67808,1.02075-.04229,2.04474.00038,3.06688-.01879.37534-.007.50914.11947.50209.49716-.01865.99964.02045,2.00086-.01683,2.99946-.02012.53895.12418.75438.7001.72668.93144-.04478,1.86759.01391,2.79982-.0217.56065-.02142.795.12512.7628.73941-.05235.99724.00007,1.99953-.02071,2.99909-.00834.40108.12326.5484.53323.54009,1.06652-.0216,2.134.006,3.20061-.014.37352-.007.50637.10672.4981.49012-.022,1.02174.02422,2.04563-.02,3.06593-.02383.54994.18114.67788.68586.66171.99924-.032,2.0006.00612,3.00035-.017.40351-.00931.55.1174.54078.52983-.02287,1.0217.00835,2.04462-.01474,3.06631-.00986.43675.09074.64515.58478.64131q3.66735-.02855,7.335.00111c.46552.00394.54987-.18022.5393-.58839-.02417-.9327.03294-1.86883-.02149-2.799-.038-.64922.11063-.9152.824-.86046.906.06952,1.82418-.02617,2.73185.03173.61856.03945.7479-.18652.72229-.752-.0442-.97577.00354-1.95536-.01962-2.93258-.0097-.40959.13575-.54579.5386-.53806,1.02213.01962,2.04616-.02414,3.06688.01852.54587.02282.67435-.17455.65661-.68292-.03562-1.021.00606-2.04446-.0186-3.06608-.00984-.4073.11545-.54458.5291-.53345.97734.02628,1.95822-.0326,2.93306.02325.6158.03528.749-.18663.72273-.75229-.04432-.9535.00963-1.91125-.02159-2.86578-.01491-.456.109-.62815.5898-.61154.97688.03376,1.9572-.022,2.93325.02213.57291.02589.797-.12374.76215-.7333-.0506-.886.02643-1.77938-.02635-2.66512-.03742-.62809.131-.86727.79637-.82785.95247.05643,1.91158-.00882,2.86627.024.47785.01641.60474-.15707.59272-.61153-.02818-1.06592.00525-2.13337-.01644-3.19959-.00776-.38131.1194-.50057.49567-.49352,1.06658.02,2.134-.00645,3.20062.01364.37751.00712.50124-.11728.494-.49479-.02054-1.06626.00685-2.13345-.0142-3.19969-.00751-.38.12265-.50436.49634-.49827,1.06667.0174,2.13481-.02121,3.20036.01748.51564.01872.635-.1617.6285-.64763-.02536-1.88851-.01936-3.77763-.00581-5.66638A12.18583,12.18583,0,0,1,75.7609,29.587l-.00747.011c1.26154.13431,2.52689.02353,3.78989.05986.33019.00949.33627-.20353.33518-.44119q-.01846-4.03023-.03326-8.06047l-.00185-4.111c.01132-1.26123.01108-2.52272.04048-3.78352.0098-.42038-.21183-.461-.53977-.45926-1.21807.00632-2.43621-.00066-3.65431-.00264l.00809.0082c-.00284-1.23645-.02056-2.47314-.00045-3.70922.007-.43143-.129-.57516-.56753-.56688C73.87156,8.55566,72.61242,8.53651,71.3536,8.53423Z"/><path d="M338,50.13891c-2.04355-.01156-4.08726-.042-6.13048-.02166-.523.0052-.68663-.13022-.67894-.66185.02859-1.9772,0-3.95518.01993-5.93259.00455-.452-.11108-.62654-.59529-.62046-1.93345.02425-3.86784.03552-5.80073-.005-.61251-.01283-.66816.24616-.66722.74594q.0189,9.86575.00791,19.73157c-.00013,1.08153.08845.96419-.96424.96553-1.88926.00243-3.77874-.01346-5.66767.01082-.46148.00593-.59939-.11948-.59887-.59126q.019-17.29826.001-34.59653c-.00042-.43733.12388-.56412.55973-.55951,2.00017.02116,4.00093.02562,6.00093-.00182.51945-.00713.69129.12781.68224.66915-.03244,1.93263.00068,3.86629-.02214,5.7992-.00561.477.107.66082.62475.65851,4.245-.01892,8.49007-.00988,12.73514-.01368.16807-.00015.3614.06547.49391-.11136Z"/><path d="M184.85077,41.20626q0-11.23227-.01114-22.4645c-.00107-.50471.103-.66188.64163-.66q9.26831.032,18.53677-.00067c.59358-.00222.73654.15526.72258.737-.04209,1.75442.00534,3.5109-.028,5.2657-.00971.512.14927.63191.63688.624,1.73326-.02793,3.46773.01188,5.20067-.02442.561-.01175.758.0935.75675.71456q-.03205,15.832-.005,31.66412c.00065.50031-.09656.68124-.64282.66981-1.7996-.03766-3.6007.00138-5.40069-.02522-.44435-.00656-.54854.12542-.543.55286.0235,1.79957-.00556,3.59984.02,5.39936.007.49416-.09307.69556-.64576.69392q-9.33489-.02775-18.66985.00266c-.58282.00216-.57389-.27095-.57355-.68453Q184.85542,52.43861,184.85077,41.20626Zm6.65679-.07512c0,5.264.00834,10.52813-.01187,15.7921-.0022.57557.09958.788.74483.78215q5.7982-.05208,11.5971-.00139c.67694.00571.85644-.17766.85506-.854q-.03207-15.69055.00141-31.38117c.00135-.62222-.19268-.71632-.749-.71306q-5.89849.03463-11.79726-.00025c-.51954-.003-.655.126-.65293.65011C191.51575,30.64743,191.50756,35.8893,191.50756,41.13114Z"/><path d="M288.44546,46.40248c0-5.68823.009-11.37649-.01339-17.06462-.00234-.58972.15456-.74031.74327-.73839q10.002.03264,20.00424.00154c.53924-.00152.713.1131.71122.68377q-.03063,10.06578-.00114,20.13167c.0015.54146-.11577.706-.68767.70246-4.33414-.02685-8.66853-.00549-13.00272-.02715-.49939-.0025-.62792.118-.61971.619.03207,1.95491.0279,3.91084.00247,5.866-.00619.47485.1442.58948.60213.58776,4.33422-.01629,8.66855-.00015,13.00275-.022.53016-.00266.7192.08871.70679.67307-.04191,1.97677-.037,3.95534-.00231,5.93238.00954.54158-.19888.60292-.65879.602q-10.06843-.01927-20.13692.00446c-.55595.00169-.66051-.1864-.65927-.68719Q288.4577,55.03489,288.44546,46.40248Zm14.22921-7.06619c0-1.02115-.0153-2.04265.00808-3.06328.00853-.37343-.09792-.49052-.48017-.48722q-3.06416.02652-6.12853.00092c-.371-.00281-.493.09863-.48968.48236q.02658,3.06324,0,6.12679c-.00329.381.11079.48588.48623.48281q3.06414-.02505,6.12852.00037c.37551.00322.49349-.09865.48415-.47949C302.65823,41.379,302.6747,40.35745,302.67467,39.33629Z"/><path d="M245.14342,45.05324c-.00025,6.1781-.01051,12.35623.01524,18.53422.00263.63473-.18271.76939-.7861.76712q-8.90269-.03342-17.80552-.00006c-.59891.00223-.75591-.17894-.74443-.75579.03405-1.71054-.00383-3.42244.02262-5.13324.00724-.46913-.13144-.60051-.598-.59359-1.778.02635-3.55682-.00363-5.33487.02124-.41416.00578-.51366-.10258-.5119-.51349q.02518-5.90018.00055-11.80047c-.00176-.42575.09641-.55987.54177-.553,1.75574.02721,3.5125-.0087,5.26808.0234.51783.00947.63936-.17.63285-.65-.023-1.68868.01214-3.37827-.02045-5.06663-.01122-.58079.10865-.79673.75894-.79069,3.801.03537,7.60249.00625,11.40363.02969.55019.00339.7155-.14426.703-.69894q-.054-2.39894,0-4.79971c.01485-.62508-.152-.84348-.81323-.83817-3.75657.0302-7.51369-.003-11.2702.03147-.66761.00612-.8088-.2007-.793-.82483.04279-1.6879.03089-3.37787.00378-5.06643-.00765-.47648.14485-.60378.60835-.60277q9.06943.01982,18.139-.00152c.48588-.00126.59022.15986.58924.61455Q245.13247,35.7194,245.14342,45.05324Zm-19.239,6.357c0,1.95451.01334,3.90917-.00985,5.8634-.00544.45919.11888.5964.59017.59405q5.765-.02877,11.53024.00138c.54876.00327.67147-.19154.66948-.69329q-.02282-5.76345.0008-11.527c.00195-.45995-.12508-.59886-.5941-.59668q-5.83175.0271-11.6636-.00149c-.4618-.00245-.536.15294-.53188.56283C225.91506,47.54554,225.90433,49.47794,225.90443,51.41024Z"/><path d="M272.06693,51.15451c0,4.15451-.0123,8.3091.01382,12.46345.00371.59206-.15605.746-.74435.73764-2.42179-.03459-4.84439-.01432-7.26669-.01456-.84747-.00009-.84769-.00054-.84771-.88635q-.00007-12.36353.01508-24.727c.00166-.61277-.15965-.75626-.757-.74768-2.46624.03544-4.93337.005-7.4.02417-.4311.00335-.61442-.05462-.60893-.55792.02805-2.57683.02351-5.1542.00293-7.73117-.00355-.44534.13145-.555.56329-.5516,2.511.01963,5.02246-.0059,7.53331.02219.5276.00591.66871-.14162.66314-.66384-.02658-2.488.00517-4.97661-.02519-7.4645-.00663-.54328.16385-.66863.67751-.66385q3.79981.0353,7.60005-.00012c.47742-.00434.59394.14633.59029.60321-.02,2.51032.006,5.02106-.02213,7.53123-.00592.52966.14712.663.66579.65736,2.48866-.02683,4.978.00347,7.46664-.02446.53276-.006.67523.14912.66986.67311-.02576,2.51022-.03026,5.02109.00283,7.53113.00736.55885-.19243.64391-.68194.63972-2.48878-.02128-4.978.00456-7.46668-.02175-.50717-.00536-.66076.107-.65759.64214C272.078,42.80143,272.06694,46.978,272.06693,51.15451Z"/><path d="M111.13067,47.00551c0-5.71157.00738-11.42316-.01193-17.13466-.00184-.54245.12136-.72213.69194-.71159,1.9556.03615,3.91248.02808,5.86846.00351.46813-.00589.61595.12911.60413.59888-.03018,1.19936.01926,2.40111-.02566,3.59956-.02158.5755.18239.69126.71763.68871,4.29038-.02051,8.581-.00225,12.87133-.02316.53431-.00261.71638.11069.71245.68439q-.03971,5.80023-.003,11.60087c.00273.52788-.1.73461-.68566.72293q-2.89992-.05783-5.80159-.00029c-.58344.01139-.70341-.19251-.69221-.7243.03132-1.48836-.00612-2.97812.02028-4.46667.00882-.497-.15486-.64859-.649-.64227-1.9115.02448-3.82389.03113-5.73511-.00286-.58354-.01038-.75572.15751-.75418.74787.01925,7.356.00487,14.71216.02825,22.06817.002.62805-.13136.83377-.7918.81737-1.88843-.04688-3.77912-.03629-5.66816-.004-.54033.00925-.71231-.11474-.71-.68789C111.13963,58.42866,111.13067,52.71707,111.13067,47.00551Z"/><path d="M146.80645,39.86615q0,12.09849.015,24.197c.00174.623-.16957.77857-.77459.76647q-2.866-.05735-5.73374.00019c-.57065.01126-.74479-.10883-.74114-.71621.02859-4.75459.01582-9.50942.01582-14.26418q0-17.06409-.01394-34.12817c-.001-.62009.11971-.839.78684-.82179,1.86573.04821,3.73417.04472,5.60016.00167.65542-.01513.86605.12853.86357.83468C146.79612,23.77915,146.80645,31.82267,146.80645,39.86615Z"/><path d="M104.03581,47.073c-.00005,5.68653-.00847,11.37309.013,17.05954.00214.56617-.16376.70444-.70948.69542-1.93259-.032-3.86626-.02832-5.799-.00154-.49767.00689-.67659-.08973-.67573-.64145q.02647-17.19269.00295-34.38542c-.00057-.48935.11215-.647.62461-.639q2.96564.04638,5.93232.00053c.52063-.00785.62217.17428.62094.65268Q104.02318,38.44335,104.03581,47.073Z"/><path d="M165.8033,64.81444c-3.06606,0-6.13222-.01482-9.198.01338-.56567.0052-.69974-.16428-.6942-.709q.04089-4.031.00187-8.06258c-.00417-.50175.14858-.63842.64425-.63717q9.26418.02325,18.52845.00034c.50969-.00125.63971.17309.63634.657-.01887,2.70967-.023,5.41969.003,8.12925.005.5254-.18432.62085-.657.61808C171.97982,64.80563,168.89153,64.81444,165.8033,64.81444Z"/><path d="M100.422,22.06973c-1.0208,0-2.04189-.01405-3.06225.00737-.37519.00787-.49345-.10542-.49012-.48848.01768-2.04087.01489-4.082.00236-6.123-.00231-.37545.06667-.56282.50665-.55852,2.04141.02,4.08319.017,6.12467.00188.41066-.003.54149.14689.539.5451q-.019,3.06143.0013,6.123c.00285.37736-.11386.50641-.49277.49934C102.50823,22.057,101.465,22.06971,100.422,22.06973Z"/><path class="cls-1" d="M75.7609,29.587a12.18583,12.18583,0,0,0-.06664,2.25679c-.01355,1.88875-.01955,3.77787.00581,5.66638.00652.48593-.11286.66635-.6285.64763-1.06555-.03869-2.13369-.00008-3.20036-.01748-.37369-.00609-.50385.11829-.49634.49827.02105,1.06624-.00634,2.13343.0142,3.19969.00727.37751-.11646.50191-.494.49479-1.06659-.02009-2.134.00637-3.20062-.01364-.37627-.007-.50343.11221-.49567.49352.02169,1.06622-.01174,2.13367.01644,3.19959.012.45446-.11487.62794-.59272.61153-.95469-.03278-1.9138.03247-2.86627-.024-.66534-.03942-.83379.19976-.79637.82785.05278.88574-.02425,1.77912.02635,2.66512.0348.60956-.18924.75919-.76215.7333-.976-.04412-1.95637.01163-2.93325-.02213-.48077-.01661-.60471.15551-.5898.61154.03122.95453-.02273,1.91228.02159,2.86578.0263.56566-.10693.78757-.72273.75229-.97484-.05585-1.95572.003-2.93306-.02325-.41365-.01113-.53894.12615-.5291.53345.02466,1.02162-.017,2.0451.0186,3.06608.01774.50837-.11074.70574-.65661.68292-1.02072-.04266-2.04475.0011-3.06688-.01852-.40285-.00773-.5483.12847-.5386.53806.02316.97722-.02458,1.95681.01962,2.93258.02561.56551-.10373.79148-.72229.752-.90767-.0579-1.82582.03779-2.73185-.03173-.71336-.05474-.862.21124-.824.86046.05443.93014-.00268,1.86627.02149,2.799.01057.40817-.07378.59233-.5393.58839q-3.66732-.0311-7.335-.00111c-.494.00384-.59464-.20456-.58478-.64131.02309-1.02169-.00813-2.04461.01474-3.06631.00923-.41243-.13727-.53914-.54078-.52983-.99975.02307-2.00111-.01506-3.00035.017-.50472.01617-.70969-.11177-.68586-.66171.04422-1.0203-.002-2.04419.02-3.06593.00827-.3834-.12458-.49713-.4981-.49012-1.06659.02-2.13409-.00763-3.20061.014-.41.00831-.54157-.139-.53323-.54009.02078-.99956-.03164-2.00185.02071-2.99909.03224-.61429-.20215-.76083-.7628-.73941-.93223.03561-1.86838-.02308-2.79982.0217-.57592.0277-.72022-.18773-.7001-.72668.03728-.9986-.00182-1.99982.01683-2.99946.007-.37769-.12675-.5042-.50209-.49716-1.02214.01917-2.04613-.0235-3.06688.01879-.53458.02216-.74316-.09425-.71055-.67808.0532-.95258-.02534-1.91256.029-2.865.03349-.58745-.18017-.70563-.713-.68038-.88714.04206-1.78-.02761-2.66608.02474-.62542.03695-.86876-.12253-.82536-.79305.06014-.92944-.01335-1.86688.026-2.79854.02268-.53613-.11461-.7498-.692-.72254-.97587.04608-1.95594-.00467-2.93334.02036-.43011.011-.58848-.12432-.5766-.56582.02627-.97707-.02328-1.9567.01967-2.93258.02525-.57358-.18718-.72195-.72764-.70021-.95428.03838-1.91418-.03507-2.866.0267-.64579.0419-.75216-.20158-.74467-.77925.03057-2.35507-.0024-4.71095.02456-7.06611.00591-.51617-.121-.69535-.6578-.67077-.95382.04366-1.9122-.01543-2.86645.0233-.51766.021-.67735-.12732-.67431-.66111.0224-3.93316.01231-7.86651.01236-11.7998,0-1.24442.02185-2.48943-.01106-3.733-.01343-.50757.10871-.70679.65676-.68255.99832.04416,2.00037-.00331,3.00009.02021.39983.00941.54779-.10423.53721-.5229-.02639-1.04377.01891-2.08968-.02024-3.13265-.01939-.51663.164-.64264.64878-.62649.99917.03329,2.001-.01294,3.00019.01953.50962.01656.71228-.11925.68862-.66765-.04306-.99814.00137-1.99973-.01859-2.99932-.00789-.39521.11335-.54536.52772-.54454q7.9352.01579,15.87042-.00057c.39353-.00082.48719.14649.48109.50733-.01766,1.04414.012,2.08923-.01469,3.133-.01093.42774.10718.58574.55568.57164.97708-.03072,1.957.02,2.93336-.02105.538-.0226.74633.11083.71808.68828-.04773.97544.02081,1.95653-.02616,2.932-.02674.55542.18485.67973.68784.66458.99937-.03011,2.00063.00652,3.00041-.0158.43029-.0096.59327.13566.5837.574-.0223,1.02173.00867,2.04462-.01409,3.06633-.00956.42906.12728.58553.57037.58255q3.66737-.02471,7.33495-.0002c.40685.00258.54074-.12171.52987-.53148-.02592-.97708.03531-1.958-.02363-2.93216-.03928-.64924.20828-.79031.79528-.76321.90942.042,1.82341-.017,2.73312.02168.5379.02285.75549-.12008.72661-.697-.04549-.90882.022-1.82331-.02385-2.73211-.03131-.62134.13383-.87814.80548-.83714.93012.05677,1.86814-.02109,2.79923.0272.57747.02995.71014-.178.68758-.71714-.04177-.99825.00634-2-.02055-2.99925-.01116-.41449.13075-.52324.53135-.52238q7.902.017,15.804.00233c.3485-.00049.52647.06306.51715.47038-.02844,1.24323-.0211,2.48727-.02768,3.731-.242.017-.484.04865-.72607.04885-3.73149.00315-7.46305.01361-11.19439-.01012-.55829-.00356-.72728.1553-.70168.70949.044.9534.04023,1.91146.0007,2.86525-.02078.50158.13215.64026.63264.638,2.39959-.01107,4.79943.03086,7.19906.02165.48064-.00184.66714.09723.64452.61931-.04325.998.0138,2.00018-.02392,2.99863-.01826.48324.14966.59658.60232.58138.95463-.032,1.91276.02438,2.86614-.0226.56621-.0279.74253.10445.73922.7135-.02031,3.754.01821,7.50839.01274,11.2626-.0007.47988.09868.66937.62019.6514C73.27482,29.57639,74.51828,29.59388,75.7609,29.587Z"/><path class="cls-2" d="M75.7609,29.587c-1.24262.00685-2.48608-.01064-3.72746.03214-.52151.018-.62089-.17152-.62019-.6514.00547-3.75421-.03305-7.50855-.01274-11.2626.00331-.609-.173-.7414-.73922-.7135-.95338.047-1.91151-.00944-2.86614.0226-.45266.0152-.62058-.09814-.60232-.58138.03772-.99845-.01933-2.00064.02392-2.99863.02262-.52208-.16388-.62115-.64452-.61931-2.39963.00921-4.79947-.03272-7.19906-.02165-.50049.00231-.65342-.13637-.63264-.63795.03953-.95379.04334-1.91185-.0007-2.86525-.0256-.55419.14339-.71305.70168-.70949,3.73134.02373,7.4629.01327,11.19439.01012.242-.0002.484-.03183.72607-.04885l-.00837-.00765c-.00342,1.24322.00071,2.48653-.015,3.7296-.0046.36468.06542.603.49935.59477,1.28649-.02429,2.57324-.03473,3.8599-.05059l-.00808-.00821c-.00915,1.23677-.00464,2.47386-.03451,3.71013-.01113.461.19961.55326.60361.54681,1.19459-.01907,2.38963-.00974,3.5845-.01151l.00185,4.111c-1.17358.0009-2.348.02819-3.52036-.00945-.51409-.01651-.63149.161-.62579.64277.01567,1.32671-.04679,2.65438-.02879,3.981a26.09765,26.09765,0,0,0,.08313,3.82749Z"/><path class="cls-1" d="M75.75343,29.598a26.09765,26.09765,0,0,1-.08313-3.82749c-.018-1.32662.04446-2.65429.02879-3.981-.0057-.48174.1117-.65928.62579-.64277,1.17235.03764,2.34678.01035,3.52037.00945q.01613,4.03025.03325,8.06048c.00109.23766-.005.45068-.33518.44119C78.28032,29.62156,77.015,29.73234,75.75343,29.598Z"/><path class="cls-1" d="M75.69788,12.808c-1.28667.01586-2.57342.0263-3.85991.05059-.43393.00819-.504-.23009-.49935-.59477.01569-1.24307.01156-2.48638.015-3.7296,1.25882.00228,2.518.02143,3.7763-.00232.43857-.00828.57456.13545.56753.56688C75.67732,10.33487,75.695,11.57156,75.69788,12.808Z"/><path class="cls-1" d="M79.84339,17.04523c-1.19487.00177-2.38991-.00756-3.5845.01151-.404.00645-.61474-.08585-.60361-.54681.02987-1.23627.02536-2.47336.03451-3.71013,1.2181.002,2.43624.009,3.65431.00265.32794-.0017.54957.03888.53977.45926C79.85447,14.52251,79.85471,15.784,79.84339,17.04523Z"/><rect class="cls-1" x="75.64019" y="14.92842" width="4.20505" height="14.6919"/><rect class="cls-1" x="71.4117" y="25.4062" width="4.27519" height="4.27519"/></g></g></svg>