<svg xmlns="http://www.w3.org/2000/svg" viewBox="0 0 1457 872.39244"><defs><style>.cls-1{fill:red;}.cls-2{fill:#fff;}.cls-3{fill:#fcaeae;}</style></defs><g id="Layer_2" data-name="Layer 2"><g id="Layer_1-2" data-name="Layer 1"><path d="M1456.72981,700.96763a12.277,12.277,0,0,0-4.43823-.37188q-39.39573-.00739-78.79145-.00469c-2.92265-.00024-2.65222.16833-2.65378-2.70147q-.01085-18.10217-.01048-36.2042c-.006-3.6522.44587-3.46461-3.42126-3.46786q-18.81071-.01607-37.62176-.00349c-.63094,0-1.26464-.02932-1.89209.02065-.78794.06279-.83671.57061-.61648,1.18866-.03059.6251-.08718,1.25026-.08742,1.87542q-.00777,18.5964-.0012,37.19286c.00024.54821.0378,1.09631.05779,1.64453q.00723.714.01445,1.428c-.025.7853-.07164,1.57048-.07176,2.35578q-.00559,39.78006-.00024,79.56025c0,.78542.04443,1.57078.06815,2.35613l-.00723,1.42647c-.02131.62835-.06116,1.25664-.06116,1.885q-.0047,40.017.00072,80.034c.00012.62744.051,1.25489.07826,1.88245.19169,1.27675.19157,1.27849,1.10944,1.3148.23636.00933.4732.00475.7098.00475q19.51925.00036,39.03848-.00313a16.46946,16.46946,0,0,0,1.651-.08477.99692.99692,0,0,0,.94014-.91485,24.30018,24.30018,0,0,0,.11511-2.59214q.00759-60.33583.00458-120.67166c0-.7098-.01638-1.42021.00626-2.12935.04912-1.52256.22636-1.68264,1.83718-1.74007.23624-.00843.4732-.00367.70968-.00367q18.21793-.0002,36.43586.0021a13.0897,13.0897,0,0,1,1.65224.06033,1.4497,1.4497,0,0,1,1.35819,1.39335,20.986,20.986,0,0,1,.05611,2.12616q.00434,17.86412.00338,35.72835a14.04079,14.04079,0,0,0,.06189,2.12363,4.02926,4.02926,0,0,0,.59722,1.21545,2.57677,2.57677,0,0,0,.35038-.1384c.54641.03636,1.09282.10421,1.63948.10451q19.08486.009,38.16973-.00157c.622-.00048,1.24381-.09367,1.86583-.14364a3.47978,3.47978,0,0,1,.78386.11457,3.12,3.12,0,0,1,.62949.43015V700.61562C1456.90777,700.73874,1456.77026,700.98274,1456.72981,700.96763Z"/><path d="M475.46513,817.80451A1.97349,1.97349,0,0,0,473.397,815.764c-.55158-.01517-1.104-.00307-1.65608-.00307q-19.99046-.00009-39.98091-.00006-35.963,0-71.92573.00012c-.55213,0-1.10432-.00849-1.65615.00416a4.87206,4.87206,0,0,0-.93846.08223,1.53976,1.53976,0,0,0-1.34038,1.64062c-.02034.63033-.00517,1.26181-.00517,1.89281q-.00009,24.48975.01517,48.97945c.00722,3.47955-.82949,3.47027,3.37286,3.471q28.15554.0046,56.31108.00132,28.27384,0,56.54744-.00126c.70932-.00006,1.422.02137,2.12688-.04028a1.21616,1.21616,0,0,0,1.19047-1.2219c.02962-.47127.00325-.946.00325-1.41924q.00037-25.08135.001-50.16258C475.46224,818.593,475.48945,818.19722,475.46513,817.80451Z"/><path d="M1.52852,616.26323c.47333.00867.94677.00145,1.42021.00145H21.41157c6.391,0,12.78207-.01553,19.173.00722,2.79628.00994,2.55848-.1729,2.55914-2.646q.00451-18.58231.0006-37.16456c-.00006-.47321.01806-.94918-.02468-1.41913a2.03989,2.03989,0,0,0-1.693-1.67c-.62757-.04949-1.26145-.02336-1.89245-.02336q-18.22616-.00136-36.45224-.00037c-3.07629.00019-3.07966.002-3.08,3.16685Q-.0002,595.09764.00139,613.67989c0,.31558-.004.63129.00163.94682C.03174,616.23343.03258,616.23572,1.52852,616.26323Z"/><path d="M1281.932,829.11836q-18.813-.004-37.62608.00355c-.78615.00042-1.57217.06725-2.35819.10313q.01391,19.41042.02926,38.82071-.0168-19.41033-.02926-38.82065a.43689.43689,0,0,0-.72148.00247c-.94147-.03679-1.88294-.105-2.82441-.10554q-18.64887-.01076-37.29749-.01162c-2.69208-.00325-2.684.43732-2.68473-2.6751q-.00433-19.5941.00553-39.18826c.93593-.06574,1.87186-.18868,2.80767-.189q40.16206-.01543,80.324-.00951c.78723-.00006,1.57819.02541,2.36048-.04046.76808-.06466.79613-.61059.63623-1.2113.02529-.70776.07285-1.41557.073-2.12333q.00541-39.97422.00036-79.94844c-.00012-.7083-.0419-1.41654-.06418-2.12478q-.00452-.51311-.00891-1.02629c.02529-.54984.07249-1.09975.07261-1.64953q.006-19.02345-.00024-38.04673c-.00012-.47086-.04756-.94159-.07285-1.41238.16062-.6027.1304-1.13731-.6396-1.21245-.62564-.061-1.26043-.03811-1.891-.03817q-61.88024-.00189-123.76036-.00078c-.55219,0-1.10642-.02595-1.65584.01355-1.35808.09741-1.67307.40481-1.73616,1.7016-.03444.70836-.01264,1.41948-.01264,2.12941q-.00056,42.83276-.00024,85.66528V832.916q0,17.9853.00084,35.97072a17.64312,17.64312,0,0,0,.03287,1.89136,1.73168,1.73168,0,0,0,1.73772,1.59191c.62853.03986,1.26164.01409,1.89257.01409q21.76966.00063,43.53956.00036,39.63629,0,79.27259-.00024c.70992,0,1.42045.01481,2.12965-.00873.89306-.02968.89258-.04358,1.09667-1.35356.02324-.70848.06647-1.417.06671-2.12544q.00613-18.57735-.00084-37.15493C1284.6237,828.92071,1284.99106,829.119,1281.932,829.11836Zm-41.28732-85.36878q-19.84831-.00515-39.69638-.01487c-2.887-.00313-2.52363.36875-2.52616-2.47847q-.01679-18.66783-.00024-37.33567c.00036-.78518.06418-1.5703.09862-2.35541q19.59708.00342,39.1944.00686c.62961.00012,1.25958-.0124,1.88859.00626,1.19059.03528,1.29595.1487,1.33894,1.38553.0136.39313.00493.78705.00493,1.1806q.00036,18.5358-.01071,37.07173A4.29084,4.29084,0,0,1,1240.64466,743.74958Z"/><path d="M690.37449,748.72067V709.21008q0-19.28118,0-38.56226,0-16.20753.00061-32.41508c0-.39434.02119-.78951.0024-1.18283-.09271-1.95193-.63334-2.476-2.554-2.49286-.39434-.00343-.78855-.00048-1.183-.00048q-16.798-.00009-33.596-.00181c-2.7105-.001-2.51111.18953-2.51207-2.60116q-.00668-16.79906-.00313-33.59809c0-.70957.0224-1.42232-.03576-2.12779-.0643-.78036-.609-.79041-1.2054-.63726-.78651-.02805-1.57277-.08055-2.35927-.08067q-36.90544-.00649-73.81114-.00054c-.78711.00012-1.57409.04485-2.3612.06881h-1.00083c-.47139-.02384-.94279-.06839-1.4143-.06857q-18.08934-.00568-36.179-.00054c-.39314.00012-.78615.036-1.17916.0552-.18434.09446-.50547.16352-.52859.28784a7.75848,7.75848,0,0,0-.091,1.4048q-.00525,18.08454.00481,36.169c.0006.62323.10584,1.24634.16255,1.86957.39374-.012.78771-.029,1.18144-.04322-.39373.0142-.78758.03124-1.18144.04322-.02733.78723-.0785,1.57439-.07874,2.36156q-.00633,36.8025-.00085,73.60476c0,.70872.04118,1.41732.06322,2.126.39325.01782.7865.04347,1.17975.0646-.39325-.02113-.7865-.04672-1.17975-.0646l.01264.97446c-.02625.78728-.07514,1.57457-.07526,2.3618q-.006,36.68455-.00036,73.369c.00012.78753.04263,1.575.06538,2.36252-.05225.94074-.1493,1.88161-.14966,2.82242q-.01264,36.91546-.00578,73.83094c0,.63082-.02264,1.26464.0289,1.89185.0956,1.161.30631,1.35043,1.4308,1.37975.63046.01638,1.26187.00385,1.89281.00385q56.19729.00018,112.39459,0c.70968,0,1.41985.00626,2.12953-.00445.39337-.0059.78614-.048,1.17964-.06129a.95121.95121,0,0,0,.9523-.87669,16.09155,16.09155,0,0,0,.15424-2.34879q.01354-16.91952.01469-33.83915c.00109-.93906.12149-1.87794.18651-2.81694q18.97868.01933,37.95746.03a4.133,4.133,0,0,0,.89535-.20024.75093.75093,0,0,0,.75483-.74737,13.96384,13.96384,0,0,0,.0407-1.64947q.002-19.99171.0006-39.98331Q690.37431,769.30358,690.37449,748.72067ZM649.4921,733.78373q0,47.449.00385,94.89815c.001,4.04642-.0106,3.40705-3.47617,3.41633q-15.61857.04189-31.23714.00186c-6.77076-.02023-13.54141.03047-20.31206.01222-6.78389-.0183-13.56766-.00385-20.35155-.00433-.63094-.00012-1.26332-.03167-1.89269-.00139-.98505.04745-1.42214-.51155-1.43682-1.45139q-.01121-.70989-.01084-1.41985.00451-76.91407.00987-153.82827.0009-18.57771-.00758-37.15536c.00072-2.90658-.31294-2.70893,2.63271-2.70911q36.56157-.00236,73.12325.00283c3.30736.0009,2.95035-.30674,2.951,2.86649Q649.49818,686.09788,649.4921,733.78373Z"/><path d="M894.45656,643.19835a1.98547,1.98547,0,0,0-2.228-2.10238c-.47332-.00758-.94676-.00144-1.42021-.00144q-54.9144-.00009-109.82894.00006c-.55219,0-1.10462-.00289-1.65693.00253a4.18949,4.18949,0,0,0-.70764.03913,1.644,1.644,0,0,0-1.33785,1.44947,7.75115,7.75115,0,0,0-.03.94538q-.002,17.39877.00241,34.79753c.00072,1.35856.40589,1.81912,1.71256,1.99233a9.15845,9.15845,0,0,0,1.182.02763q18.46194.03161,36.92375.05653c11.51893.00055,23.03773-.03817,34.55666-.05382,3.068-.00415,3.07328.00554,3.074,3.18737q.004,15.505-.00482,31.01c-.00578,3.61657.39157,3.17888-3.11254,3.18057q-35.26857.01734-70.53749.00614c-.63118,0-1.26272-.01-1.89353.008a3.297,3.297,0,0,0-.93292.11944,1.09984,1.09984,0,0,0-.89367.97573c-.04094.78692-.07477,1.57535-.07513,2.36318q-.00723,15.86-.00265,31.72021c.00048,3.26955.21529,3.22988-3.231,3.22669q-16.21424-.01527-32.42857-.00109a12.30629,12.30629,0,0,0-1.87921.09115c-.36652.057-.75941.25659-.70318.77669q17.95875-.00822,35.91763-.01481-17.95876.005-35.91751.01481c-.03937.62534-.11222,1.25074-.1127,1.87607q-.01029,17.00252-.00132,34.00513c.00024.62769.0549,1.25543.08428,1.88312.35352.01818.707.04419,1.06055.06568-.35351-.02149-.707-.0475-1.06067-.06568q-.01083.52467-.02191,1.04929c.43166-.02565.8632-.06225,1.29486-.09259-.43166.03034-.8632.06694-1.29474.09259-.02216.62925-.0631,1.25856-.06334,1.88787q-.006,16.67262-.0006,33.34512c.00133,2.74541-.28332,2.50893,2.56011,2.51q17.854.007,35.70787.00686c.02962.94508.08465,1.8901.08513,2.83518q.009,16.21523.00542,32.43038c.00012.70974-.02288,1.424.04732,2.128a1.56531,1.56531,0,0,0,1.40985,1.368c.70475.06406,1.41841.04257,2.12809.04263q20.47413.0029,40.94838.00144,34.55877,0,69.11741-.00054c.70992,0,1.4237.03341,2.128-.03209a1.3068,1.3068,0,0,0,.7505-.44888,4.02055,4.02055,0,0,0,.6956-2.8996q-.02041-19.408-.009-38.81589V676.10157q0-15.62335-.00012-31.24677C894.4627,644.30249,894.50014,643.74717,894.45656,643.19835Zm-116.2545,186.995q-.00217-35.49488.00951-70.98975c.00048-.84291-.24455-1.74573.36218-2.51116h0c.47309.01023.94629.0295,1.41937.0295q36.45247.00216,72.90471.00024c.4732,0,.9464-.01626,1.41949-.025h.00012a5.38749,5.38749,0,0,1,.35074,1.10294c.06214.62528.03059,1.26031.03059,1.89124q.00126,35.02149-.00012,70.0431c-.00012.63082.02312,1.2644-.02553,1.892-.08055,1.03737-.45309,1.39637-1.45862,1.44983-.55062.02938-1.1039.01625-1.656.01535q-17.27207-.02862-34.54413-.05485-17.74545.00036-35.49078.05407c-.70956.00108-1.42117.01083-2.1282-.03685-.78025-.05274-1.09571-.38639-1.16266-1.2054C778.18809,831.29954,778.20206,830.74518,778.20206,830.1933Z"/><path d="M214.05225,687.71149c-.709-.02866-1.41991-.0112-2.13-.01126q-39.76525-.00045-79.53045-.00235c-3.02958-.00048-3.00555.29428-3.00236-2.914q.01164-11.48049.002-22.961a13.0031,13.0031,0,0,0-.02233-1.65513c-.16815-1.30233-.65532-1.69161-2.03537-1.72357-.31553-.00729-.63124-.00139-.94683-.00139q-18.93587,0-37.8716.00012c-.39452,0-.79036.0227-1.18319-.00241-1.02677-.06574-1.39685.46165-1.47228,1.4237-.05539.70632-.03769,1.419-.038,2.12881q-.004,7.10146-.00133,14.2027c0,4.81317-.023,9.62647.00645,14.43941.02889,4.72155-.07231,9.44225-.01885,14.16422.05551,4.89139.0124,9.78391.0124,14.676s-.01107,9.78409.003,14.67614c.01409,4.88036-.05177,9.76067-.0077,14.64121.02558,2.8403.00469,5.68108.00469,8.52162v17.04323c0,2.84054.06213,5.68276-.01758,8.52108-.07953,2.82988.02324,5.65573.01927,8.48338q-.00975,6.983-.00169,13.96591c0,4.65539-.02968,9.31089.00843,13.96591.03793,4.64148-.0841,9.28139-.03082,13.92395.08416,7.337.02239,14.6759.02239,22.01391,0,4.892-.00867,9.78409.00434,14.67613.005,1.9128.41577,2.2975,2.37022,2.3491.15762.00415.31559.00054.47333.00054q18.81756,0,37.63494-.00036a10.46973,10.46973,0,0,0,1.18246-.016,1.90312,1.90312,0,0,0,1.90262-1.99708c.03155-.47121.00368-.9464.00368-1.41985q-.00018-21.53775-.00012-43.07562V783.61763q0-24.61457.0012-49.22912c.00012-.70993-.0118-1.42172.03516-2.12905.05418-.816.37892-1.1511,1.15206-1.2054.62853-.04407,1.26139-.03324,1.89239-.0333q18.10729-.00243,36.21473.00031c.63069.00012,1.26187.00915,1.89184.03654a.85693.85693,0,0,1,.9133.87025c.037.70848.03853,1.41936.03871,2.12917q.00334,14.20275.005,28.40538c.00037.70848.03257,1.41828.085,2.12484a1.00863,1.00863,0,0,0,.91438.9446,14.2572,14.2572,0,0,0,2.11309.128q18.93577.01029,37.87166.00445c.55213-.00006,1.10577.01566,1.65609-.0183.70794-.04352.75008-.13714.77784-1.34622.02733-.70685.07856-1.41376.07868-2.12068q.00624-35.45081.00042-70.90166c-.00006-.70734-.04515-1.41473-.06923-2.12213C214.96109,687.814,214.93051,687.74713,214.05225,687.71149Z"/><path d="M301.24081,574.66887c-.07483-1.02-.47314-1.41034-1.4635-1.47656-.70685-.04732-1.41846-.03324-2.1279-.03336q-18.68959-.00234-37.37925-.00108c-.47309,0-.94665-.01048-1.41937.00337-1.047.0307-1.04683.03576-1.2113,1.44164-.02974.70637-.08555,1.41275-.08567,2.11918q-.00669,39.69508-.00012,79.39017c.00012.70649.0549,1.413.08422,2.11948q-.00027.79667-.00048,1.59335c-.02914.54786-.08356,1.09583-.08374,1.64375q-.00732,18.63-.00018,37.25987c.00024.54809.05285,1.09619.08109,1.64429q.00263.7954.00524,1.59094c-.02992.70643-.08591,1.41275-.086,2.11918q-.00669,39.93213.00012,79.86427c.00012.7062.0587,1.41251.09012,2.1187l.017,1.124c-.037.62792-.1062,1.25573-.10632,1.88365q-.008,40.239.00277,80.47794c.00024.61992.1121,1.23978.17194,1.85963a.76167.76167,0,0,0,.73991.76459,10.12352,10.12352,0,0,0,1.64416.07887q19.04442.00524,38.08894.00193a12.79294,12.79294,0,0,0,1.41822-.02493c1.22244-.13714,1.61172-.57916,1.64544-1.8261.01709-.63046.00373-1.26175.00373-1.89263q0-64.58915.00012-129.17828,0-81.1506-.001-162.30119C301.269,576.24512,301.2983,575.45356,301.24081,574.66887Z"/><path d="M39.8773,658.43225c-12.38779.029-24.77569.01053-37.16348.01065-.55237.00006-1.10534-.01457-1.65681.00735-.93551.03726-.96784.09452-.9552,1.37842.40987-.03877.81974-.10276,1.22973-.1325-.41.02974-.81986.09373-1.22973.1325-.03347.54714-.09608,1.09433-.09632,1.64152q-.00831,18.62955-.0006,37.25909c.00024.5481.05291,1.09613.08115,1.64417l.04949,1.1234c-.04479.862-.12848,1.72394-.12872,2.58588q-.01029,39.8142-.00156,79.62839c.00012.78494.05882,1.56994.09012,2.35494q.00849.56207.017,1.124c-.037.62792-.1062,1.25573-.10632,1.88365q-.008,40.239.00277,80.47794c.00024.61992.1121,1.23978.17188,1.85963-.00554.49789.36405.69283.74081.76592a7.43855,7.43855,0,0,0,1.40817.07754q19.05514.00505,38.11037.00241a10.466,10.466,0,0,0,1.18276-.01132,1.93065,1.93065,0,0,0,1.94543-2.13916c.01168-.55207.00229-1.10462.00229-1.65705q0-22.01457.00012-44.02926V739.675q0-38.82255-.00157-77.64522C43.56876,658.65349,43.90915,658.42279,39.8773,658.43225Z"/><path d="M1109.78663,662.67057a1.12086,1.12086,0,0,0-1.02467-1.115,17.24926,17.24926,0,0,0-2.35578-.10644q-23.54055-.00784-47.08111-.00957c-.94327-.00048-1.88642-.08248-2.82958-.12655-.00722-.86723-.021-1.73447-.021-2.60177q-.0018-23.183-.0065-46.36624c-.00048-.86188-.08188-1.7237-.12559-2.58558-.1198-.184-.2207-.50878-.36278-.52792a14.14973,14.14973,0,0,0-1.88222-.10235q-24.015-.00651-48.03-.00193c-.55171.00006-1.107-.01529-1.65428.03913-1.07524.10693-1.36819.42625-1.40263,1.47915-.02071.63028-.00518,1.26182-.00518,1.89275q-.00018,23.07006-.00168,46.14a17.4618,17.4618,0,0,1-.06237,2.1246.87674.87674,0,0,1-.58567.56983,9.31634,9.31634,0,0,1-1.6485.07049q-8.99065.00489-17.98169.00205-15.14247,0-30.28495.00307c-1.97914.00127-2.30256.328-2.39407,2.29226-.01107.236.00025.47309.00025.70969q.00036,23.89816.00264,47.79632a8.57389,8.57389,0,0,0,.06382,1.40974c.066.393.2773.73846.78024.69963.86224.04407,1.72448.12612,2.58672.12661q23.4255.01155,46.851.00776c.86693.00018,1.734.03137,2.60093.04823.02444,1.02382.07019,2.04765.07031,3.07148q.00525,75.43839.00325,150.8769c0,.70944-.02841,1.42057.01036,2.128.07525,1.37361.378,1.68035,1.688,1.754.55014.03095,1.10329.015,1.655.015q23.64711.0009,47.29411.0003c.55183,0,1.104.01186,1.65524-.00891.91065-.03425.91028-.04359,1.094-1.3411.02384-.78728.06815-1.57439.06839-2.36162q.00505-49.45443-.00024-98.90892c-.00012-.78717-.04805-1.57433-.07357-2.36144q.006-.5002.0118-1.00034c.02155-.86646.062-1.733.06225-2.59961q.00578-23.3129.00686-46.62578c.00181-2.98033-.36327-2.68467,2.61177-2.68576q23.42984-.0082,46.85979-.00638c.86537-.00024,1.73062-.05569,2.59611-.08543v-.00006c.69632.11246,1.272.0407,1.28825-.86079.0071-.39422.003-.78867.003-1.183q0-24.01519-.00205-48.0304C1109.83467,663.77314,1109.81456,663.22132,1109.78663,662.67057Z"/><path class="cls-1" d="M933.51541,87.8911c-.10736,0-.21472-.00273-.32262-.00545-.08829-.00218-.17657-.00463-.26485-.00463-.05178,0-.10355.00081-.15532.00354-.0703.00354-.1406.00545-.21035.00545a3.51345,3.51345,0,0,1-2.60384-1.09211,3.6734,3.6734,0,0,1-.93461-2.79893c.02016-.30681.01308-.63161.00545-.97521-.00381-.18311-.00817-.36649-.00817-.54932l-.00055-5.26952q-.00081-7.90387.00382-15.80747c.00054-.85042.02125-1.70056.0425-2.551.00927-.38637.03543-1.61527.03543-1.61527l.63433-.6248.32807-.32888,4.48123.00981q11.5554.02534,23.10971.04605h0a2.64311,2.64311,0,0,0,.36131-.04333c.09645-.01526.19291-.03052.28937-.0425l.2109-.02643,2.39512.61635.00163,5.15971q.00327,10.39012.01635,20.78053c.00109.63216.04087,1.26241.08283,1.93.01962.31281.03924.62589.0545.939l.01308.261-.70355,1.61009-.59564.09945c-.14823.0248-.29646.05723-.44524.08911a6.055,6.055,0,0,1-1.27685.1752q-7.14609.01349-14.2922.0109Z"/><path class="cls-1" d="M930.13745,82.47348c0,.53352.03526,1.06922-.00034,1.60029a2.38872,2.38872,0,0,0,2.57832,2.69614c.26588-.01383.53335.0051.80011.0051q12.27087.00123,24.54167-.00967a9.70571,9.70571,0,0,0,1.54081-.24891q.1782-.40586.35532-.81431c-.04851-.97412-.13747-1.94811-.13924-2.92237q-.02248-12.53837-.0173-25.07681-.67521-.174-1.35233-.348a6.36626,6.36626,0,0,1-.79033.09455q-13.56376-.02177-27.12752-.05463-.15786.158-.31761.31424c-.02394,1.22978-.06744,2.45955-.06859,3.68933Q930.13045,71.936,930.13745,82.47348Z"/><path class="cls-1" d="M988.30575,197.5217q-.007-25.69754-.00947-51.395c-.00048-1.06693-.08647-2.13386-.13266-3.20079-8.29991.00633-16.6-.01166-24.89967.03025-3.58447.01812-3.38824-.64061-3.41638,3.478q-.09515,13.91872-.15964,27.8376-.04128,12.3171-.00068,24.63441a8.37263,8.37263,0,0,0,.2491,1.48692q-12.96475,0-25.92936.00157c-3.52165.00191-3.25841.1161-3.27735-3.13014q-.142-24.36439-.27922-48.72886c-.04122-9.9105-.00756-19.82141-.00756-29.73211,0-.44642-.00446-.89291.00072-1.33933.03352-2.87954-.077-2.62955-2.6408-2.63017q-11.51747-.00276-23.035-.0015c-.71417-.00013-1.42983.014-2.142-.02711a.80134.80134,0,0,1-.84242-.83725c-.01642-.71379-.0293-1.42785-.0295-2.14184q-.00312-10.98243-.00167-21.96487c-.00007-.71433.01519-1.42948-.01452-2.14265-.037-.88665-.18519-1.00889-1.16508-1.05413-.35645-.01649-.71409-.00817-1.07122-.00954q-25.57556-.096-51.15111-.19146c-.71427-.00265-1.42962.02412-2.14252-.00749-1.756-.07808-2.01258-.34143-2.06927-2.04038-.00893-.26757-.00382-.53568-.00385-.80352q-.00051-11.38431.00252-22.76847c.00392-3.118.07219-3.17279,3.11324-3.18955,13.2987-.07345,26.59743-.20713,39.89613-.2027,14.36894.00483,28.73788.13886,43.10681.21653q.1598-.15627.31768-.31444c-.03522-.6184-.10067-1.2368-.10118-1.85533q-.00949-12.35512.00079-24.71025c.0003-.44111.05713-.88208.08769-1.324q-.2667-.2132-.53378-.42489c-.8027.01853-1.60527.05314-2.4078.05328q-40.42853.00408-80.85705.00027-15.52884-.00306-31.05649-.03686a1.42893,1.42893,0,0,1-.36234.37045q.01435,8.53662.02828,17.07139c.00371,3.11188.01655,6.224-.01046,9.33557-.01233,1.42226-.15337,1.53864-1.51516,1.58633-.71045.0248-1.42236.00859-2.13359.00872q-12.40234.00307-24.80445.00532c-.0368,1.60363-.1032,3.2074-.10585,4.81124-.01169,7.04547.00081,14.091-.0078,21.13648-.00375,3.04007-.3028,3.33564-3.38064,3.33925-7.3126.00852-14.62523-.00375-21.93783.00872-1.336.00225-2.672.08183-4.00789.12564q.01094,12.82128.0216,25.64255c.00024.2671.00552.53459-.00627.80128-.05986,1.35541-.17569,1.51362-1.59158,1.51819q-9.48183.03077-18.96388.00736c-2.66893-.00559-5.33786-.06207-8.00819-.09546q-.64572.00051-1.28851.00129c-.79558.03291-1.59113.09362-2.38675.09444q-11.03313.01093-22.06626-.00572c-.87533-.00212-1.75036-.142-2.62686-.21885-.58657.00163-1.09159-.1452-1.14017-.8333-.05018-.71133-.04613-1.42737-.04644-2.14136q-.0045-10.71589-.00415-21.43171c-.00038-.80318-.007-1.60759-.04974-2.40934a.98527.98527,0,0,0-1.02265-1.007c-.80158-.04156-1.60547-.05151-2.40834-.05192-7.50065-.00368-15.00134.01-22.502-.00974-2.50568-.00661-2.52531-.04395-2.52878-2.53866q-.01554-11.11766-.00426-22.2353c-.0001-.71433.01881-1.43-.01669-2.14279-.06678-1.33961-.29506-1.581-1.561-1.64649-.71263-.0368-1.42832-.01745-2.14265-.01758q-10.84917-.00123-21.6983-.00075-.93756-.0001-1.87512-.00532c-.822-.00443-1.06059-.505-1.03811-1.22684-.05389-1.94711-.16053-3.89346-.15123-5.83927.03441-7.18175.10718-14.36322.16823-21.54762q-.64858-.25724-1.30268-.50883c-.9789.0295-1.9578.08455-2.9367.08476q-39.84684.007-79.69364.0032-15.51024-.00081-31.02092-.01008c-.04773,1.06155-.13423,2.123-.136,3.18458q-.018,10.91-.0078,21.82c-.00021.70916.02211,1.42226-.04391,2.12624a1.03609,1.03609,0,0,1-1.2599,1.03184c-.615.06078-1.22807.17293-1.84122.17313q-13.00968.00542-26.01944-.01587l.00947.16659-.164-.06466c-.04105,1.33422-.11528,2.67029-.11756,4.00649-.012,6.95608-.00086,13.9123-.011,20.86837-.00143.97816-.07594,1.95617-.11665,2.93419.18761.6958.11144,1.28707-.74922,1.3608-.79711.06827-1.60285.04551-2.4048.04585-7.66711.00293-15.33428-.00729-23.00138.00866-2.08069.00436-2.08171.03924-2.12579,2.08971-.00767.35648-.00188.71324-.00188,1.06986q.0001,54.02946.00637,108.05884c.00021.88733.092,1.77473.14111,2.66205q13.24843-.024,26.4969-.04762c.17841-.00028.35723-.00109.5351.01022.89418.05655,1.14713.27186,1.205,1.07749.03192.44411.01993.89176.02,1.33777q.001,25.96408-.00439,51.9283c-.00021.62207-.06957,1.24415-.10687,1.86732q.20564.71326.41086,1.42471,13.52427-.01983,27.05-.03543a5.51736,5.51736,0,0,1,.79191.11113c.68762-.00648,1.25635.15446,1.2805.99246.02058.71358.02133,1.42791.0215,2.14183q.00209,10.97988.00678,21.95977c.00143.97869.08159,1.95739.1253,2.93609q12.75555-.00951,25.51118-.01254c.616.00027,1.232.0913,1.84848.14022.3029.10084.84314.16175.8677.30879a14.64725,14.64725,0,0,1,.17225,2.38406q.01543,11.11632.00658,22.23258c.00078,3.60722-.237,3.39511,3.27417,3.39511q10.98179-.00009,21.96355.00334a17.49494,17.49494,0,0,1,2.39966.10125c.19265.02685.32187.5085.48025.78111a8.27725,8.27725,0,0,1,.294,1.54483q.02049,12.41553-.00474,24.83106a4.36189,4.36189,0,0,1-.064.53084q.3125.68977.62514,1.37736,13.15839-.02167,26.31679-.03366a11.24093,11.24093,0,0,1,1.56442.2136c.2876.15392.79214.2722.82393.46748a15.00665,15.00665,0,0,1,.13913,2.38855q.01181,11.23069.00841,22.46145c.00355,2.62607.022,2.64317,2.66972,2.64651q11.23008.014,22.46008.00382c.713.00007,1.42713-.01629,2.1386.01846.86753.04225,1.14593.27834,1.21342,1.08581.06664.79759.07342,1.60173.07437,2.40313q.009,7.62078.00331,15.24162c.00034,2.674-.01949,5.34822.01325,8.02178.01652,1.34861.26191,1.57345,1.53594,1.634.62259.02957,1.24753.01144,1.87141.01151q10.96266.00072,21.92532.00116c.71283.00014,1.42784-.02044,2.13782.0278.6898.04688.79612.59543.85295,1.14876a5.48958,5.48958,0,0,1,.197,1.03566q-.00956,12.759-.044,25.51861.29133.68252.58273,1.36475,12.40393.01472,24.80762.03516c.97175.00259,1.94322.10888,2.91412.1668.49445.01608.893.22232.94227.73736.06773.70779.05768,1.42444.058,2.13727q.00506,10.96924-.00082,21.9385c-.00436,3.35567-.0774,3.209,3.22035,3.20795q25.41474-.008,50.82951-.00354c.71314-.00014,1.42832.01226,2.139-.03495.78509-.05213,1.05221-.34865,1.10008-1.20443.03982-.71147.02613-1.42635.02626-2.13966q.00221-10.83546.004-21.67094a17.23,17.23,0,0,1,.10074-2.39741c.03-.2119.49327-.36241.75763-.54113a9.07578,9.07578,0,0,1,1.31365-.1871q12.83022.00747,25.66034.04041c.87928-.96214.71906-2.15574.72005-3.30518q.00919-10.70833.00641-21.41659a16.50209,16.50209,0,0,1,.10544-2.39735c.03658-.24719.47456-.4349.72908-.65021q.12361-.2364.246-.4717c.154-.28331.27547-.78281.46925-.81265a15.86051,15.86051,0,0,1,2.39155-.12312q11.10354-.00992,22.207-.00511a15.37982,15.37982,0,0,0,2.136-.04974,4.066,4.066,0,0,0,1.14389-.56335c-.02627-3.3915-.06589-6.78308-.07543-10.17465q-.01956-6.96434.00491-13.92865c.00385-.97727.11208-1.95412.17255-2.93323.19964-.24515.373-.66432.603-.69811a14.7628,14.7628,0,0,1,2.13182-.06664q11.4981-.00367,22.99623-.00538c2.5141-.00334,2.53587-.02324,2.53958-2.47557q.017-11.23129.00627-22.46273a19.23239,19.23239,0,0,1,.07342-2.39994c.02963-.234.45132-.41842.69338-.62555a20.33488,20.33488,0,0,1,2.10473-.215q12.24051-.02013,24.481-.00129c.26471.00014.52941.04388.79317.06684q.618-.79156,1.23774-1.58135c-.0263-.26491-.07529-.53051-.07549-.79623q-.0096-11.89686-.00923-23.79384c0-.35628-.004-.7146.03141-1.06829a1.09084,1.09084,0,0,1,1.19043-1.14951c.71021-.0462,1.42478-.03244,2.13747-.03271q8.42092-.00306,16.84195.00273c2.67141.00586,5.34273.05192,8.015.08108q.25045-.74812.499-1.49857c-.03492-.53323-.09971-1.06646-.10019-1.59968-.00657-7.5847-.03863-15.1698.00971-22.75416.02487-3.90559-.18063-3.46434,3.48213-3.47211q11.24259-.02412,22.48525-.00068c.79988.00082,1.59976.06009,2.39646.0928.16291-.11011.329-.22076.49524-.33059-.04834-.52921-.13851-1.0591-.13913-1.58906q-.01359-11.89961-.00627-23.79914c0-.17825-.00276-.35662.00239-.5348.05059-1.75564.19538-1.9131,2.04035-1.97579,1.06836-.03631,2.1389-.01247,3.20846-.00974q11.36272.02964,22.72584.062.62211-.09116,1.24524-.18158.11939-.65073.23616-1.304c-.02126-.44363-.06118-.88774-.06132-1.33185q-.005-26.30349.00164-52.60706c.00027-.77988.0682-1.55975.10724-2.33963.69852.03754,1.39691.10472,2.09544.10534q12.09736.01145,24.19467.00027c.707-.00055,1.41415-.06187,2.12112-.095C988.35549,199.48189,988.306,198.50176,988.30575,197.5217Z"/><path class="cls-1" d="M962.10962,116.15561c-.43052,0-.8605-.00463-1.28938-.02561a2.07486,2.07486,0,0,1-2.2567-2.10193c-.04414-.55068-.04468-1.091-.04523-1.61391v-.0752q-.009-12.81182-.01035-25.62253a1.63619,1.63619,0,0,1,.09155-.5169l.21635-.88611.91445.02834c.321.01254.64142.02834.96186.04442.667.03324,1.29756.06457,1.93244.06539,2.06214.00273,8.22186.003,8.22186.003H972.883q6.11858,0,12.23824.01826a16.81684,16.81684,0,0,1,2.31936.21989c.32153.04577.6436.09182.96513.12834l.99238.11226-.00981,7.23084q-.01225,9.35565-.03324,18.71185c-.00218.75042-.043,1.49838-.08338,2.22182-.01853.33243-.03651.66485-.05123.997l-.04687,1.06758Z"/><path class="cls-1" d="M959.62391,86.71636q.00132,12.81069.01049,25.62151c.00041.53379-.00116,1.06949.04141,1.60083.06417.79946.32017,1.03332,1.19879,1.07657.71049.035,1.42344.02194,2.13543.02221q12.54768.00552,25.09542.00852c.04659-1.05771.13092-2.11535.13379-3.17312q.03351-12.47134.04094-24.943a29.5605,29.5605,0,0,0-3.16345-.341c-7.49767-.02984-14.99561-.01172-22.49342-.02119-.97895-.00122-1.95771-.07282-2.93592-.11083A1.15486,1.15486,0,0,0,959.62391,86.71636Z"/><rect class="cls-2" x="929.54367" y="86.45689" width="30.37629" height="114.00396"/><rect class="cls-2" x="901.69965" y="57.70294" width="27.84402" height="57.05569"/><rect class="cls-2" x="859.74322" y="41.94171" width="28.85451" height="60.17524" transform="translate(802.14113 946.1998) rotate(-90)"/><rect class="cls-1" x="959.91996" y="85.85043" width="28.3333" height="29.19557"/><rect class="cls-3" x="959.91996" y="114.75863" width="28.3333" height="28.70024"/><rect class="cls-3" x="929.54367" y="86.45689" width="30.40967" height="28.30174"/><rect class="cls-3" x="901.89381" y="57.45163" width="27.64986" height="29.15542"/><rect class="cls-3" x="844.08285" y="57.45163" width="28.3333" height="29.15542"/><rect class="cls-3" x="929.22378" y="169.70781" width="30.67329" height="30.67329"/><path d="M1017.77215,200.22488c-.01581-.28828-.03543-.57657-.055-.86486-.04142-.60136-.08066-1.16921-.08175-1.73488q-.00654-4.13178-.00109-8.26382c.00218-4.47878.00491-9.11015-.018-13.66659-.00382-.76295-.01417-1.52562-.02507-2.288-.02452-1.76077-.04959-3.58149.01635-5.36107.067-1.81909.05068-3.65888.03488-5.43819-.00654-.78556-.01363-1.5714-.01363-2.35669l.00436-15.77668-.00381-7.75483.00327-23.26365-.006-17.956c-.00272-1.85533-.00545-3.71065.00981-5.56652.00491-.63679.04578-1.27031.08937-1.94116.01962-.31118.03979-.62235.05614-.93352l-.00491-.2921-.37493-.92644-28.0329-.025V56.22493h-29.8088l-.00286-6.05972q-.00327-8.54311-.01145-17.086l.00218-.79728c.00927-1.6229.01417-2.51664-.65286-3.18749a3.55036,3.55036,0,0,0-2.66215-.66322l-1.44578.00463q-9.17093-.02126-18.34019-.03215l-5.36785-.008c-.00447-.173-.00835-.346-.01312-.519-.02289-.845-.04577-1.68993-.04632-2.53517q-.00572-5.13642-.00272-10.27283.00081-5.29744-.00327-10.59517c-.00055-.29346.00163-.561.00272-.80518.01036-1.53489.0158-2.3804-.62725-3.02782a3.34545,3.34545,0,0,0-2.49757-.63788L926.63034.0079q-14.66985-.00327-29.343-.00272L848.35948.00545q-14.768,0-29.53373.00409c-.81036.00027-1.62454.0267-2.412.05231-.364.012-.72752.02371-1.09156.033L814.266.12207l-.03052,1.05614c-.012.41771-.02779.83543-.043,1.25287-.03378.91009-.06866,1.85124-.06757,2.78749q.01062,8.21205.042,16.42382l.018,5.80277.0075.51771-2.92686-.00572q-11.75895-.02329-23.51979-.04033a3.52312,3.52312,0,0,0-.7744.10409c-.06675.01472-.13324.0297-.2.04115l-.92534.15858-.06683,28.04285-26.92165-.032c-.04878,0-.09973-.00354-.151-.00654-.09618-.00572-.19291-.01063-.28665-.01063a1.85457,1.85457,0,0,0-.86049.18747,2.356,2.356,0,0,0-1.21881,1.34688,4.265,4.265,0,0,0-.10436,1.32535c.00327.10054.00681.20109.00681.3.00415,7.741.01573,23.26018.01808,26.40094l-24.95968.03467c-.06468,0-.12565.00041-.18886.00055-.07861-.00041-.157-.00382-.23567-.00382l-1.23706.00491L705.28705,85.811l-1.21526-.003q-.38788,0-.77549.0049c-3.03081.04387-3.74253.36377-3.775,3.41065-.01226,1.17058-.00953,2.34116-.00681,3.51175.00191.79237.00409,1.58475.00109,2.37712l-.08065,20.55519,1.04088.07412c.3327.0237.6654.05341.9981.08338.74987.0673,1.52508.13678,2.31227.13842q6.90251.01348,13.80583.012,6.67974,0,13.35813-.00654c.55685-.00021,1.1104-.02044,1.65533-.04285,1.43867.02091,2.8772.03965,4.31583.04285q4.1988.00858,8.39788.009,5.284,0,10.56765-.01662c1.98394-.006,2.61528-.61009,2.70275-2.58476.00981-.22044.009-.44142.0079-.6624l-.02282-26.23671c.3934.02344.79159.04347,1.19694.04387q6.30331.00736,12.60772.00736,5.05182,0,10.1028-.00463c3.57687-.00327,4.07224-.49428,4.07578-4.04172q.01185-11.48959-.00218-22.97891c-.00031-.31-.01689-.61315-.03815-.91241l25.174-.00558,1.20546.00517c.32261,0,.64469-.00327.96676-.01444,1.96841-.06921,2.57441-.69782,2.59184-2.69157.02235-2.536.01744-5.11148.01308-7.602l-.00272-1.74279c-.00382-3.16277-.01986-12.38436-.02677-16.31906l9.19686.01267q10.54832.01594,21.0977.02262,16.52138.00327,33.04438.003l47.79544-.00327c.55859-.00027,1.11718-.01634,1.67631-.03269l.08668-.00239c-.01471.19912-.02639.40184-.02673.61329q-.00818,12.35322-.00055,24.70672c.00055.46294.03324.91336.06485,1.34878.01363.18965.02725.3793.03815.56894l.06049,1.05015,5.0856.0109q11.54721.02533,23.09335.04605h.00545a4.3425,4.3425,0,0,0,.71227-.07139c.07139-.01118.14223-.02289.21362-.03188l1.21389-.01206L959.92,86.45689h27.24352l-.00736,6.71626q-.01225,9.3483-.03324,18.69687c-.00164.69183-.03978,1.37821-.08011,2.10492-.01853.3406-.0376.68148-.05341,1.07112l.00218,27.95034c.01472.34142.03379.68284.05232,1.02453.04087.73461.079,1.42835.079,2.12781q.00735,15.14152.00654,30.28251l.00327,21.1007c0,.62834.0203,1.257.04169,1.88523-.32943.01791-.65287.03283-.9714.033q-6.157.00531-12.31562.00545-5.93628,0-11.87147-.00545c-.44633-.00055-.89865-.03079-1.37713-.06267-.21962-.01472-.43924-.02943-.65886-.04115l-1.11826-.06022-.04264.8498-.59715,1.32215.52119.03733c-.02445.42807-.04612.86247-.04652,1.30437q-.009,26.29761-.00164,52.59711c.00055.324.01962.64769.03924.97167l.02343.41172.01519.31656-23.09928-.06261-.83161-.0049c-.34333-.00273-.6872-.00545-1.03053-.00545-.46267,0-.9248.0049-1.38693.02044-2.40874.082-3.04961.7109-3.11719,3.06024-.00381.14278-.00381.2861-.00327.42915l.00055,4.7093q-.00082,9.61069.006,19.22194c.00034.26533.02034.51826.04489.76663-.54608-.0282-1.11009-.05682-1.67923-.05736l-1.16622-.00109q-5.88071-.00573-11.76194-.00763-4.778,0-9.55593.00954h-.09482c-.32971,0-.62671-.00327-.89429-.00654-.2267-.00273-.43379-.00491-.6218-.00491-2.96732,0-2.97277,1.42454-2.98149,4.01093l-.00273.58066c-.03651,5.77061-.0267,11.63578-.01744,17.308l.00763,5.44935c.00055.40927.03325.80219.06485,1.1823.01363.163.02725.32589.03761.48883l.01965.30069-1.87362-.02194c-1.84742-.02316-3.69485-.04659-5.54227-.05068q-3.56979-.00777-7.14011-.00681l-10.48781.00245c-.44524,0-.9259.00463-1.42236.03679a2.18439,2.18439,0,0,0-2.22781,2.15178,10.40591,10.40591,0,0,0-.03651,1.07521v.10409q.00083,11.89464.00927,23.78873a5.31468,5.31468,0,0,0,.05449.68311c.00927.07439.01853.1485.02616.22262l.036.36492-.06649-.00579c-.07575-.00654-.1515-.015-.22725-.02371a5.93477,5.93477,0,0,0-.66158-.04714l-1.27576-.00081q-6.26817-.0045-12.53579-.00572-5.333,0-10.666.0079a11.74509,11.74509,0,0,0-1.58912.14142c-.2109.02861-.4218.05722-.6327.07983l-1.03107.11063.03433,1.03652c.01036.3079.02344.61581.036.92371.02725.65069.05559,1.32372.05613,1.97413q.00573,4.94391.00273,9.88754,0,6.28083.00708,12.56194c.00491,2.92019.53243,3.43436,3.52755,3.43845q4.90058.00654,9.8017.006l12.91508-.00381c.5466,0,.99347-.01254,1.40655-.03951a1.93823,1.93823,0,0,0,1.88449-1.89157c.03705-.72317.04087-1.42072.04141-2.19293l.00109-3.10711q.00327-8.06859-.00327-16.1369c-.00163-1.2684-.02288-2.53708-.04414-3.80548-.00667-.41253-.02323-1.57371-.0331-2.27249l.04455.00327c.21907.01607.4376.03678.65613.05749.49646.04687,1.00982.09537,1.5417.09619q5.96817.00735,11.938.00654,6.52648,0,13.053-.00464c.32916-.00027.65886-.02316.98747-.04714.13406-.00981.26758-.01961.40109-.02724l.95314-.0545.09374-.95014c.01035-.10246.02343-.20491.036-.30736a6.76274,6.76274,0,0,0,.06975-.86241q-.00572-11.11152-.0218-22.222l-.005-3.92959,20.13979.02275,2.93245.00709c.81363,0,1.62726-.00436,2.44034-.01962,1.96078-.03651,2.61528-.66813,2.69376-2.5992.01907-.46486.0158-.93025.01253-1.39592l-.00272-.52208-.00055-5.56761q-.00163-7.91859.00818-15.8369c.00105-.62555.04645-1.253.09513-1.91439l17.0772.0062,6.145-.00191c.92535-.00082,1.85832-.0267,2.76078-.052.42017-.01172.83979-.02344,1.26-.0327l1.04469-.02316.04578-1.04388c.00981-.22289.02234-.44605.03488-.66894.02779-.48965.05667-.99592.05613-1.50955q-.00817-9.85593-.02616-19.71186l-.01029-6.52375,3.75473.02779c2.515.02017,5.03055.04006,7.5461.04687q3.23546.00858,6.47035.00872,3.84036,0,7.68071-.01172c.75586-.00218,1.51009-.042,2.23925-.08011.33352-.01771.66649-.03515,1-.04932l1.03816-.04332.03051-1.0387c.00927-.30981.02071-.61962.0327-.92944.02507-.66512.05123-1.35287.05123-2.03952l.00381-22.383q.00082-13.81848.00545-27.63671c.00055-.68577.03406-1.36649.0701-2.08387l3.04328.00729q11.58808.0282,23.17673.04278h.00055a3.02368,3.02368,0,0,0,1.07139-.23651c.0812-.03.1624-.06077.24415-.0842l.854-.24551ZM814.60167,28.39026l-.00919.00041-.104-.16117.11485.08487C814.60419,28.33467,814.60232,28.36451,814.60167,28.39026Z"/><path d="M700.25268,455.01555l.01417-26.31163-1.04987-.06322c-.30109-.018-.60218-.04087-.90327-.06349-.67331-.051-1.3695-.10354-2.07468-.10545q-9.20157-.02453-18.40286-.02833l-5.86911-.00627.00913-4.43491q.02247-10.66356.03515-21.32631a3.90184,3.90184,0,0,0-.15341-.98066c-.02316-.091-.0466-.18175-.06458-.27249l-.18583-.93788-.95532.03979c-.31254.0128-.6248.02915-.93734.0455-.67276.03542-1.30846.06866-1.94879.06948q-6.62171.00941-13.244.00627l-8.38617.00163c-.87357.00028-1.6635.00545-2.48312.06676a2.00812,2.00812,0,0,0-1.90519,1.8507c-.0594.61771-.08992,1.28012-.09046,1.9684q-.00817,10.17188-.003,20.3432v.9714c-.00082.38774-.00191.78856.02888,1.20219.11226,1.50682.80355,2.16677,2.38558,2.27876.22943.01608.46022.01907.69074.01907l24.96115-.042-.001,5.87525q-.00244,10.091.01526,20.18162c.00027.149-.015.30136-.02861.455a3.04888,3.04888,0,0,0,.67657,2.58149l.34851.36976.5079-.02017c.3139-.01253.6278-.02833.9417-.04441.67085-.03379,1.30464-.06594,1.94306-.06676q5.53983-.00695,11.08128-.00545h11.09327l.88066.00218a3.24343,3.24343,0,0,0,2.44443-.62017C700.25759,457.37906,700.256,456.53954,700.25268,455.01555Z"/><path d="M468.69025,82.32457c-.003.45532-.00573.91064.00981,1.36459.07111,2.10792.6842,2.74226,2.73217,2.8289.18937.00818.379.01063.56867.01063l26.986-.06512.04442-1.067c.0128-.30354.02888-.60736.04468-.91091.03543-.673.07194-1.36894.073-2.06759q.00735-5.02605.0049-10.05211,0-5.40576.00627-10.81125c.00136-.89565.03706-1.81664.07139-2.70738.00354-.09509.00736-.19019.0109-.28529l4.0488.00409q8.84761.00858,17.69577.01145l3.34335-.00055a11.15416,11.15416,0,0,0,1.39783-.1139c.18393-.02316.36785-.04632.55205-.06457l1.00682-.09946-.00245-4.42674q-.00614-10.686-.02208-21.371c-.00153-.758-.03228-1.51581-.06338-2.254l10.4542.00408q10.48944.0045,20.97862.00627l28.02255.00082q25.82757,0,51.65378-.00409c.69047-.00027,1.38148-.0267,2.04988-.05259.30654-.01171.61308-.0237.91962-.033l.14455-.00436L641.37787,35.44q-.06785,7.8299-.11553,15.65978c-.00654,1.36.043,2.73163.091,4.05834.02207.60519.04387,1.21064.06076,1.81582l.02807,1.01908,1.01744.064c.15831.01008.31663.02234.47494.03487.38311.03.779.061,1.18993.06131q6.99732.00573,13.99546.00709,5.004,0,10.00689-.006a6.01746,6.01746,0,0,0,2.50288-.34285c-.0061.10831-.01134.21662-.01758.32487-.03569.61226-.07275,1.24524-.07357,1.88394q-.01389,11.11642-.00327,22.23313l-.00081.36185c-.00191.61009-.00409,1.24115.05694,1.88285a2.55714,2.55714,0,0,0,2.33572,2.38721,10.76022,10.76022,0,0,0,1.48693.06975l12.57666.00491q4.82783,0,9.65538-.00736c2.98176-.00517,3.50684-.52725,3.51092-3.4913q.0135-9.42392.00845-18.847l.00027-8.18343-1.046-.06594c-.218-.01363-.43625-.03134-.65423-.04878-.49783-.03978-1.01254-.0812-1.54089-.08147q-4.74853-.00409-9.49843-.00354l-15.82562.00388a11.33792,11.33792,0,0,0,.104-1.732q.00654-4.98069.00382-9.96193,0-6.08588.00763-12.17175c.00109-.62371.04959-1.24987.10054-1.91309.024-.312.048-.62425.067-.93625l.02153-.349-.18175-.29892a2.034,2.034,0,0,0-1.86459-.982c-.10654,0-.21417.00463-.321.00981-.0703.00327-.14006.00708-.20818.00708q-10.71221.00614-21.4244.02616l-5.54606.00845-.00521-6.06844q-.00818-8.85087-.01144-17.70231l.00027-.31308c.00191-1.62426.003-2.51909-.66595-3.18885C641.01166.003,640.049.003,638.8299.003H619.46709q-4.70562,0-9.40988.00463-10.995.01268-21.99008.03242Q571.77506.06663,555.4827.08147l-.98611.00027q-7.68317,0-15.36632-.04468-3.86-.01676-7.72-.03079L530.25145,0c-.343,0-.68583.00409-1.02861.01744-2.03353.08065-2.645.72017-2.72591,2.85179-.00817.21553-.00736.43134-.00627.64714l.0107,24.41312-5.49629-.00613q-9.29231-.01062-18.58515-.01417l-2.60438.00055a7.58189,7.58189,0,0,0-1.25478.13488c-.1534.02588-.30681.05177-.46022.07193l-.97167.12725.00354,5.81339q.00736,10.89123.00927,21.78218c0,.1455-.00518.29346-.01335.44442l-.639-.01881-3.9409-.00545q-10.84464-.01512-21.69062-.024a5.5024,5.5024,0,0,0-.897.09155c-.09864.0158-.19728.03215-.29592.04441l-.9763.12371.00409,25.28738Z"/><path d="M755.455,457.97225c-.20545-.01172-.41145-.01471-.61744-.01471l-.50164.0019v1.11609l-.06485-1.11609-20.15468.00143c-.06713-.00054-.13419-.00279-.20133-.00279,0,0-23.89772.00164-29.88795.00354-.682.00028-1.45505.00055-2.21228.06513a2.19348,2.19348,0,0,0-2.191,1.79919,15.04322,15.04322,0,0,0-.13379,2.01473q-.01185,10.057-.00409,20.11431v1.21037a11.78618,11.78618,0,0,0,.04387,1.266,2.32565,2.32565,0,0,0,2.50874,2.20873c.57521.0376,1.13815.04087,1.66541.04087l22.36719.00164,7.45264-.00164c.04131,0,.086-.00095.12766-.00095q1.92564.00246,3.85111.00341l16.2192-.00191.85341.003c.35586,0,.71145-.00491,1.06622-.02453,1.58393-.08883,2.30083-.776,2.39756-2.29729.03379-.53216.03161-1.05614.0297-1.56268,0,0,.00055-9.311-.00027-13.7753l.00245-2.27332c.00327-1.97958.00682-4.02673-.018-6.04364C758.02885,458.79269,757.34874,458.07688,755.455,457.97225Z"/><path d="M842.70058,371.87408a11.044,11.044,0,0,0-1.7744-.10436q-1.133-.00368-2.26705-.00327s-4.25071.00054-4.951-.00164c-3.41529-.01035-19.22576-.06648-19.22576-.06648l-.06485,1.05069c-.01853.30163-.042.603-.06539.90409-.05232.6793-.10627,1.38175-.109,2.0932-.01743,4.36407-.01907,8.92159-.0049,13.9328.00654,2.34689.02725,4.6935.0485,7.04038l.03025,3.62469a6.36322,6.36322,0,0,0-1.01827-.07289c-.19182,0-.3842.00545-.57711.0109-.17058.0049-.34115.00981-.51881.00981h-.00054q-8.7393-.00859-17.47915-.006l-8.311-.00027-.694,1.32835s.02889.9188.04033,1.23216c.024.65423.04823,1.30845.04905,1.96241q.01062,9.86328.00354,19.72685l-.00136,1.03079c-.00426,1.45873-.00024,2.31215.51424,2.95643l-5.77668-.0109q-10.45961-.02044-20.92168-.03134a5.79472,5.79472,0,0,0-1.10518.13352c-.124.02343-.248.04741-.37167.06594l-.979.14632.02834.98938c.009.31526.02043.63052.03188.94579.0237.655.04768,1.31036.0485,1.96541q.00694,7.084.00436,14.168l-.00055,7.67417c-.00163.58093-.00354,1.18148.02916,1.78584a2.08808,2.08808,0,0,0,2.1308,2.25233c.29728.02153.59565.02643.894.02643l22.92306.00136c1.11118,0,1.98939-.0019,2.61364-.62725.63761-.63815.63679-1.48284.63516-3.01637,0,0-.00273-7.118-.00273-10.58482q0-6.3172-.00409-12.63469c-.00054-.52044-.03351-1.03189-.06539-1.52672-.01417-.22152-.02834-.443-.03951-.66458l-.05218-1.03379c.03934.04768.07439.097.11975.1425.66023.66241,1.636.66241,2.76542.66241l12.41426-.00191q4.94553,0,9.89-.00463c.86158-.00082,1.72263-.02643,2.58367-.05205.39237-.01171.78474-.02343,1.17657-.03269l1.08829-.02589.03815-27.89557-.46594-.33461c-.02068-.01485-.04166-.02561-.0624-.03992l15.45216.00178,9.2551-.00109c.76786,0,1.46105-.00409,2.17441-.05586a1.95067,1.95067,0,0,0,1.85451-1.94307c.02833-.64415.0425-1.28938.0425-1.91745q.0041-10.55974,0-21.1195c0-.63216,0-1.28557-.04414-1.94525A2.23651,2.23651,0,0,0,842.70058,371.87408Z"/><path d="M613.95424,368.67406q-.01349-8.74216.00054-17.48405l.00545-8.06682-.95859-.13733c-.15122-.02153-.30218-.04932-.4534-.07684a6.97186,6.97186,0,0,0-1.269-.148q-10.561.00083-21.12222.0248l-4.72146.0079.01515-.12071.0199-.13215a3.3026,3.3026,0,0,0,.05286-.53679l.0019-1.84961q.01144-11.48958.00273-22.97864a5.34969,5.34969,0,0,0-.21254-1.32589c-.03678-.14469-.07384-.28938-.10245-.43434l-.182-.91581-1.88285.03815c-.65831.0158-1.31663.03161-1.97494.03188-3.95643.00245-22.10888.00436-22.10888.00436-.58093,0-1.2.00436-1.81745.05559a2.21388,2.21388,0,0,0-2.1774,2.22454c-.04632.57711-.04523,1.14469-.04414,1.69374l-.00273,21.42223c-.00545,1.5308-.00872,2.37413.63625,3.02127.642.64442,1.58965.64442,2.68721.64442l25.52484.01362-.0143.164c-.01172.13161-.02643.26322-.04115.3951a9.22462,9.22462,0,0,0-.07411,1.02943q-.01185,12.1595-.00681,24.31925a13.83433,13.83433,0,0,0,.05395,1.45124,1.96658,1.96658,0,0,0,1.89265,1.852c.64578.03624,1.29511.0545,1.92945.0545,3.94389.00191,22.94648.00491,22.94975.00491a3.56262,3.56262,0,0,0,2.67523-.673C613.9586,371.52312,613.957,370.45064,613.95424,368.67406Z"/><path d="M556.07126,313.0276c.03706-.38774.03678-.75777.03624-1.11581l-.03243-26.51-1.02671-.0812c-.18828-.015-.37657-.03406-.56485-.05313a13.63193,13.63193,0,0,0-1.37085-.09074l-3.39921-.00054q-8.54884,0-17.0974.00926l-5.4201.00409c.03328-.60287.06516-1.21983.06638-1.84225q.02-9.68221.02316-19.36444l.00545-6.66572-.95532-.13978c-.06921-.01008-.13869-.02344-.2079-.03652a3.9538,3.9538,0,0,0-.74715-.08637q-11.65389.00981-23.307.03l-3.04743.0045.01444-.24074c.01145-.19128.02589-.38256.0406-.57357.03352-.439.06812-.89265.06812-1.36q.00858-24.99255.00463-49.98565l.00109-2.21772c.00191-.36431.00382-.74115-.02425-1.13108a2.0644,2.0644,0,0,0-2.2477-2.11118c-.16294-.01008-.32616-.01254-.48937-.01254l-27.04284.04837c.01992-.33018.03675-.66445.03692-1.00614l.00109-1.7417q.00777-13.667-.00021-27.33412c.01118-.35743.01029-.75641.00811-1.21268l-.00218-.71009.00027-77.072.00246-.5158c.00327-.46731.006-.93461-.01227-1.4011-.07656-1.9447-.70572-2.59811-2.58993-2.6894-.22589-.0109-.45259-.01416-.679-.01416l-.36458.0019-22.57209.00164-.83434-.00191a3.379,3.379,0,0,0-2.52863.62889c-.64061.642-.6387,1.49238-.6357,3.03653l-.00055,78.88286c-.00078.4231-.001.79633.00971,1.13059q.006,12.02716.01373,24.05406l.00517,7.86355.99347.10926c.158.01744.31635.04006.47439.06213a8.74239,8.74239,0,0,0,1.24361.11308l2.80819.00054q9.35525,0,18.70967-.01226l5.23315-.0049.02275,51.702c.00027.87249.00354,1.65969.039,2.45861a2.07591,2.07591,0,0,0,2.08475,2.04906c.4109.02288.85614.03378,1.40056.03378h.00054c6.95608-.004,20.24882-.015,25.00866-.01893l-.006.28406c-.00791.37112-.018.74224-.0278,1.11336-.02125.78665-.04223,1.57358-.04441,2.36078q-.02616,9.24939-.04224,18.499l-.01444,6.94392.97222.12834c.12561.01662.2515.03788.37711.05913a6.46559,6.46559,0,0,0,1.08175.11608H501.048q10.28142,0,20.56228-.01363l4.88018-.00483-.00058,5.89806q-.00206,9.222.00654,18.44373c.00436,2.98722.52616,3.51365,3.48885,3.51937q4.97292.0094,9.94721.00818l12.835-.00354c.33951,0,.73488-.003,1.133-.03951A2.18334,2.18334,0,0,0,556.07126,313.0276Z"/><path d="M642.307,399.08136a8.82886,8.82886,0,0,0,.0812-1.21881l.00327-4.54663q.00695-8.95265-.00735-17.90585c-.00791-2.773-.76731-3.55561-3.533-3.64117-.0921-.00272-.18447-.00381-.27684-.00381l-21.93149.00218c-.37112,0-.76759.00327-1.17549.04032a2.219,2.219,0,0,0-2.2368,2.1071,10.13387,10.13387,0,0,0-.05177,1.19974q-.00287,11.35839.00163,22.71706a8.16148,8.16148,0,0,0,.08011,1.23025,2.036,2.036,0,0,0,1.851,1.81255c.58747.05913,1.21418.08747,1.97331.0891q2.57494.00531,5.1499.00436l8.27472-.00082s6.21639-.00027,7.95782-.003c.627-.00109,1.29974-.0109,1.96923-.07521A2.04315,2.04315,0,0,0,642.307,399.08136Z"/></g></g></svg>