<svg width="16" height="24" viewBox="0 0 16 24" fill="none" xmlns="http://www.w3.org/2000/svg">
<path d="M7.80644 23.4551C7.85067 23.5187 7.92322 23.5565 7.99975 23.5565C8.07727 23.5565 8.15032 23.5182 8.19555 23.4551L8.45445 23.0859C9.22769 21.9767 16 12.1333 16 8.00025C15.9995 3.5894 12.4106 0 7.99975 0C3.5894 0 0 3.5894 0 8.00025C0 12.262 7.23894 22.6466 7.54754 23.0859L7.80644 23.4551ZM4.97438 7.99826C4.97438 6.33103 6.33152 4.97388 7.99975 4.97388C9.66699 4.97388 11.0241 6.33053 11.0241 7.99826C11.0241 9.66599 9.66749 11.0236 7.99975 11.0236C6.33202 11.0241 4.97438 9.66699 4.97438 7.99826Z" fill="#EA3958"/>
</svg>
