<svg width="24" height="18" viewBox="0 0 24 18" fill="none" xmlns="http://www.w3.org/2000/svg">
<path d="M1.74116 3.96248C1.58081 3.85561 1.50064 3.80218 1.44248 3.77348C0.827703 3.47014 0.0969206 3.8613 0.00837613 4.5411C0 4.60541 0 4.70175 0 4.89445V16.88C0 16.9914 0 17.0472 0.00443804 17.0941C0.0496128 17.572 0.427993 17.9504 0.905892 17.9956C0.952841 18 1.00856 18 1.12 18H22.88C22.9914 18 23.0472 18 23.0941 17.9956C23.572 17.9504 23.9504 17.572 23.9956 17.0941C24 17.0472 24 16.9914 24 16.88V4.89445C24 4.70175 24 4.60541 23.9916 4.5411C23.9031 3.8613 23.1723 3.47014 22.5575 3.77348C22.4994 3.80218 22.4192 3.85561 22.2588 3.96248L12.6212 10.386C12.5572 10.4286 12.5252 10.4499 12.4946 10.4674C12.1879 10.6419 11.8121 10.6419 11.5054 10.4674C11.4748 10.4499 11.4428 10.4286 11.3788 10.386L1.74116 3.96248ZM4.89911 0C4.58372 0 4.42602 0 4.35016 0.0117145C3.52073 0.1398 3.20851 1.17099 3.82759 1.73765C3.88421 1.78947 4.01542 1.87695 4.27784 2.0519L11.3787 6.78582C11.4427 6.82846 11.4747 6.84978 11.5053 6.86724C11.812 7.04179 12.188 7.04179 12.4947 6.86724C12.5253 6.84978 12.5573 6.82846 12.6213 6.78582L19.7222 2.0519C19.9846 1.87695 20.1158 1.78947 20.1724 1.73765C20.7915 1.17099 20.4793 0.1398 19.6498 0.0117145C19.574 0 19.4163 0 19.1009 0H4.89911Z" fill="#EA3958"/>
</svg>
