<svg width="23" height="23" viewBox="0 0 23 23" fill="none" xmlns="http://www.w3.org/2000/svg">
<path d="M7.34199 18.0727L7.16376 17.8945L2.65869 22.3988L2.83693 22.577C3.10975 22.8497 3.47251 23 3.85837 23C4.24423 23 4.60696 22.8497 4.87973 22.577L7.34199 20.1152C7.90519 19.5521 7.90519 18.6359 7.34199 18.0727Z" fill="#EA3958"/>
<path d="M22.5769 2.8408L22.3986 2.6626L17.8936 7.16684L18.0718 7.34505C18.3447 7.61786 18.7074 7.76808 19.0932 7.76808C19.4791 7.76808 19.8419 7.61782 20.1146 7.34505L22.5769 4.88328C22.8497 4.61046 23 4.24781 23 3.86206C23 3.47627 22.8498 3.11362 22.5769 2.8408Z" fill="#EA3958"/>
<path d="M16.347 0C14.1618 0 12.1073 0.850824 10.5622 2.39569L2.39194 10.5645C-0.670908 13.6268 -0.792085 18.5329 2.02715 21.7419L6.51959 17.2503L5.80138 16.5322C5.03739 15.7683 5.03739 14.5254 5.80138 13.7615L13.7599 5.80442C14.5239 5.04062 15.767 5.04057 16.5311 5.80447L17.2493 6.52259L21.7419 2.03079C20.249 0.717675 18.3533 0 16.347 0Z" fill="#EA3958"/>
</svg>
